<svg id="Lager_1" data-name="Lager 1" xmlns="http://www.w3.org/2000/svg" viewBox="0 0 149.62 65.67"><defs><style>.cls-1{fill:#350f10;}</style></defs><title>asd</title><g id="_Grupp_" data-name="&lt;Grupp&gt;"><path id="_Stansad_bana_" data-name="&lt;Stansad bana&gt;" class="cls-1" d="M73.02 14.68a13.47 13.47 0 1 1 13.47 13.36 13.46 13.46 0 0 1-13.47-13.36zm-16 3c-.66 1-1.14 1.69-2.5 1.69h-.7c-1.36 0-1.83-.73-2.5-1.69l-4.44-6.57v14.46a2 2 0 0 1-2.2 2.13h-.73a2 2 0 0 1-2.2-2.13V3.81a1.94 1.94 0 0 1 2.2-2.13h.92A2.53 2.53 0 0 1 47.33 3l6.83 10 6.86-10a2.47 2.47 0 0 1 2.46-1.32h.92a1.94 1.94 0 0 1 2.2 2.13v21.76a2 2 0 0 1-2.2 2.13h-.73a2 2 0 0 1-2.2-2.13V11.08zm54.56 7.89a1.94 1.94 0 0 1-2.17 2.13h-.77a2 2 0 0 1-2.2-2.13V3.81a2 2 0 0 1 2.2-2.13h8.26a8.32 8.32 0 0 1 8.29 8.26 7.93 7.93 0 0 1-3.82 6.53 8.36 8.36 0 0 1 2.61 4.11l1.21 4.18a4.77 4.77 0 0 1 .26 1.28 1.82 1.82 0 0 1-2 1.65h-1.16a2 2 0 0 1-2.09-1.58l-1.2-4.3a4.87 4.87 0 0 0-4.7-3.67h-2.75zm23.15 2.13a2 2 0 0 1-2.2-2.13V3.81a2 2 0 0 1 2.2-2.13h12a2 2 0 0 1 2.2 2.13v.59a2 2 0 0 1-2.2 2.13h-9.1v5.8h7.56a2 2 0 0 1 2.2 2.13v.62a1.94 1.94 0 0 1-2.2 2.09h-7.56v5.64h9.25a2 2 0 0 1 2.2 2.13v.62a1.93 1.93 0 0 1-2.2 2.09zm-56.44-13a8.22 8.22 0 1 0 8.22-8.44 8.33 8.33 0 0 0-8.22 8.44zm33.28-8.18v6.79h5.06a3.28 3.28 0 0 0 3.3-3.38 3.36 3.36 0 0 0-3.3-3.41zM8.29 14.68a6.55 6.55 0 0 0 6.57 6.49 7.17 7.17 0 0 0 4.44-1.72 4.45 4.45 0 0 1 2.83-1.17 4.26 4.26 0 0 1 2.61.88 3.67 3.67 0 0 1 1.47 3 4.28 4.28 0 0 1-1.21 3c-1.94 2.2-5.94 4.18-10.42 4.18a14.68 14.68 0 0 1 0-29.36 14.2 14.2 0 0 1 10.27 4.18 4.28 4.28 0 0 1 1.21 3 3.72 3.72 0 0 1-1.47 3 4.22 4.22 0 0 1-2.61.88 4.45 4.45 0 0 1-2.83-1.17 7 7 0 0 0-4.37-1.72 6.53 6.53 0 0 0-6.49 6.53z"/></g><path class="cls-1" d="M43.12 65.26a1.26 1.26 0 0 1-1.4-1.4V40.6a1.26 1.26 0 0 1 1.4-1.4h.81a1.26 1.26 0 0 1 1.4 1.4v21.21h11.1a1.26 1.26 0 0 1 1.4 1.4v.66a1.26 1.26 0 0 1-1.4 1.4zM65.07 65.26a1.26 1.26 0 0 1-1.4-1.4V40.6a1.26 1.26 0 0 1 1.4-1.4h.81a1.26 1.26 0 0 1 1.4 1.4v23.27a1.26 1.26 0 0 1-1.4 1.4zM84.29 65.26a1.9 1.9 0 0 1-1.87-1.4l-9-22.31a5.05 5.05 0 0 1-.48-1.47.92.92 0 0 1 1-.88h1.47c.85 0 1.07.51 1.47 1.51l7.76 19.67 7.72-19.67c.4-1 .63-1.51 1.47-1.51h1.46a.92.92 0 0 1 1 .88 5.05 5.05 0 0 1-.48 1.47l-8.93 22.31a1.9 1.9 0 0 1-1.87 1.4zM103.59 65.26a1.26 1.26 0 0 1-1.4-1.4V40.6a1.26 1.26 0 0 1 1.4-1.4h12.87a1.26 1.26 0 0 1 1.4 1.4v.66a1.26 1.26 0 0 1-1.4 1.4H105.8v7.87h9a1.26 1.26 0 0 1 1.4 1.4v.66a1.26 1.26 0 0 1-1.4 1.4h-9v7.82h10.84a1.26 1.26 0 0 1 1.4 1.4v.66a1.26 1.26 0 0 1-1.4 1.4zM140.35 53.24a1.34 1.34 0 0 1-1.47-1.43v-.44a1.34 1.34 0 0 1 1.47-1.43h.11c2.57 0 4.48-1.36 4.48-3.9 0-2.1-1.91-3.79-4.48-3.79-2.9 0-4.37 1.69-4.48 3.79a1.28 1.28 0 0 1-1.47 1.4h-.81c-.85 0-1.32-.37-1.32-1.4 0-4 3.23-7.24 8.09-7.24 4.56 0 8.16 3 8.16 7a6.23 6.23 0 0 1-3.16 5.81 6.61 6.61 0 0 1 4.15 6.36c0 4.34-3.42 7.72-9.19 7.72-5.29 0-8.86-3.23-8.86-7.24 0-1 .48-1.4 1.32-1.4h.81a1.28 1.28 0 0 1 1.47 1.4c.11 2.09 1.84 3.79 5.15 3.79 3.64 0 5.62-1.95 5.62-4.52 0-2.76-2.5-4.45-5.26-4.45z"/></svg>
