<svg id="Lager_1" data-name="Lager 1" xmlns="http://www.w3.org/2000/svg" viewBox="0 0 198.22 65.67"><defs><style>.cls-1{fill:#350f10;}</style></defs><title>asd</title><g id="_Grupp_" data-name="&lt;Grupp&gt;"><path id="_Stansad_bana_" data-name="&lt;Stansad bana&gt;" class="cls-1" d="M73.02 14.68a13.47 13.47 0 1 1 13.47 13.36 13.46 13.46 0 0 1-13.47-13.36zm-16 3c-.66 1-1.14 1.69-2.5 1.69h-.7c-1.36 0-1.83-.73-2.5-1.69l-4.44-6.57v14.46a2 2 0 0 1-2.2 2.13h-.73a2 2 0 0 1-2.2-2.13V3.81a1.94 1.94 0 0 1 2.2-2.13h.92A2.53 2.53 0 0 1 47.33 3l6.83 10 6.86-10a2.47 2.47 0 0 1 2.46-1.32h.92a1.94 1.94 0 0 1 2.2 2.13v21.76a2 2 0 0 1-2.2 2.13h-.73a2 2 0 0 1-2.2-2.13V11.08zm54.56 7.89a1.94 1.94 0 0 1-2.17 2.13h-.77a2 2 0 0 1-2.2-2.13V3.81a2 2 0 0 1 2.2-2.13h8.26a8.32 8.32 0 0 1 8.29 8.26 7.93 7.93 0 0 1-3.82 6.53 8.36 8.36 0 0 1 2.61 4.11l1.21 4.18a4.77 4.77 0 0 1 .26 1.28 1.82 1.82 0 0 1-2 1.65h-1.16a2 2 0 0 1-2.09-1.58l-1.2-4.3a4.87 4.87 0 0 0-4.7-3.67h-2.75zm23.15 2.13a2 2 0 0 1-2.2-2.13V3.81a2 2 0 0 1 2.2-2.13h12a2 2 0 0 1 2.2 2.13v.59a2 2 0 0 1-2.2 2.13h-9.1v5.8h7.56a2 2 0 0 1 2.2 2.13v.62a1.94 1.94 0 0 1-2.2 2.09h-7.56v5.64h9.25a2 2 0 0 1 2.2 2.13v.62a1.93 1.93 0 0 1-2.2 2.09zm-56.44-13a8.22 8.22 0 1 0 8.22-8.44 8.33 8.33 0 0 0-8.22 8.44zm33.28-8.18v6.79h5.06a3.28 3.28 0 0 0 3.3-3.38 3.36 3.36 0 0 0-3.3-3.41zM8.29 14.68a6.55 6.55 0 0 0 6.57 6.49 7.17 7.17 0 0 0 4.44-1.72 4.45 4.45 0 0 1 2.83-1.17 4.26 4.26 0 0 1 2.61.88 3.67 3.67 0 0 1 1.47 3 4.28 4.28 0 0 1-1.21 3c-1.94 2.2-5.94 4.18-10.42 4.18a14.68 14.68 0 0 1 0-29.36 14.2 14.2 0 0 1 10.27 4.18 4.28 4.28 0 0 1 1.21 3 3.72 3.72 0 0 1-1.47 3 4.22 4.22 0 0 1-2.61.88 4.45 4.45 0 0 1-2.83-1.17 7 7 0 0 0-4.37-1.72 6.53 6.53 0 0 0-6.49 6.53z"/></g><path class="cls-1" d="M59.44 65.26a1.26 1.26 0 0 1-1.4-1.4V53.72H45.29v10.15a1.26 1.26 0 0 1-1.4 1.4h-.81a1.26 1.26 0 0 1-1.4-1.4V40.6a1.26 1.26 0 0 1 1.4-1.4h.81a1.26 1.26 0 0 1 1.4 1.4v9.7h12.72v-9.7a1.26 1.26 0 0 1 1.4-1.4h.88a1.26 1.26 0 0 1 1.4 1.4v23.27a1.26 1.26 0 0 1-1.4 1.4zM80.69 65.66a13.44 13.44 0 1 1 13.45-13.42 13.4 13.4 0 0 1-13.45 13.42zm9.78-13.42a9.76 9.76 0 1 0-9.78 9.89 9.9 9.9 0 0 0 9.78-9.88zM103.55 52.21a9.68 9.68 0 0 0 16.87 6.73c.77-.77 1.43-.77 2.06-.18l.63.59c.7.66.81 1.25.18 1.91a13.44 13.44 0 1 1 0-18c.63.66.51 1.25-.18 1.91l-.62.59c-.85.81-1.54.29-2.06-.18a9.68 9.68 0 0 0-16.87 6.69zM147.41 65.26c-.66 0-1-.33-1.62-1.1l-8.6-10.66-2.57 2.72v7.65a1.26 1.26 0 0 1-1.4 1.4h-.81a1.26 1.26 0 0 1-1.4-1.4V40.6a1.26 1.26 0 0 1 1.4-1.4h.81a1.26 1.26 0 0 1 1.4 1.4v10.77l10.44-11.06c.7-.74 1.14-1.1 1.8-1.1h1.43a1 1 0 0 1 1.1 1.1 1 1 0 0 1-.29.74l-9.41 9.85 9.89 12.53a1.19 1.19 0 0 1 .29.77 1.05 1.05 0 0 1-1.1 1.07zM157.89 65.26a1.26 1.26 0 0 1-1.4-1.4V40.6a1.26 1.26 0 0 1 1.4-1.4h12.87a1.26 1.26 0 0 1 1.4 1.4v.66a1.26 1.26 0 0 1-1.4 1.4H160.1v7.87h9a1.26 1.26 0 0 1 1.4 1.4v.66a1.26 1.26 0 0 1-1.4 1.4h-9v7.82h10.84a1.26 1.26 0 0 1 1.4 1.4v.66a1.26 1.26 0 0 1-1.4 1.4zM187.67 65.26a1.26 1.26 0 0 1-1.4-1.4v-9.63l-8.05-13.2a1.42 1.42 0 0 1-.29-.77 1.1 1.1 0 0 1 1.1-1.07h1.36a1.89 1.89 0 0 1 1.65 1.1l6.14 10.52 6.1-10.55a2 2 0 0 1 1.65-1.1h1.18a1.1 1.1 0 0 1 1.1 1.07 1.42 1.42 0 0 1-.29.77l-8.05 13.2v9.63a1.26 1.26 0 0 1-1.4 1.4z"/></svg>
