<svg id="Lager_1" data-name="Lager 1" xmlns="http://www.w3.org/2000/svg" viewBox="0 0 217.34 65.86"><defs><style>.cls-1{fill:#370505;}</style></defs><title>Resurs 1</title><g id="_Grupp_" data-name="&lt;Grupp&gt;"><path id="_Stansad_bana_" data-name="&lt;Stansad bana&gt;" class="cls-1" d="M73.02 14.68a13.47 13.47 0 1 1 13.47 13.36 13.46 13.46 0 0 1-13.47-13.36zm-16 3c-.66 1-1.14 1.69-2.5 1.69h-.7c-1.36 0-1.83-.73-2.5-1.69l-4.44-6.57v14.46a2 2 0 0 1-2.2 2.13h-.73a2 2 0 0 1-2.2-2.13V3.81a1.94 1.94 0 0 1 2.2-2.13h.92A2.53 2.53 0 0 1 47.33 3l6.83 10 6.86-10a2.47 2.47 0 0 1 2.46-1.32h.92a1.94 1.94 0 0 1 2.2 2.13v21.76a2 2 0 0 1-2.2 2.13h-.73a2 2 0 0 1-2.2-2.13V11.08zm54.56 7.89a1.94 1.94 0 0 1-2.17 2.13h-.77a2 2 0 0 1-2.2-2.13V3.81a2 2 0 0 1 2.2-2.13h8.26a8.32 8.32 0 0 1 8.29 8.26 7.93 7.93 0 0 1-3.82 6.53 8.36 8.36 0 0 1 2.61 4.11l1.21 4.18a4.77 4.77 0 0 1 .26 1.28 1.82 1.82 0 0 1-2 1.65h-1.16a2 2 0 0 1-2.09-1.58l-1.2-4.3a4.87 4.87 0 0 0-4.7-3.67h-2.75zm23.15 2.13a2 2 0 0 1-2.2-2.13V3.81a2 2 0 0 1 2.2-2.13h12a2 2 0 0 1 2.2 2.13v.59a2 2 0 0 1-2.2 2.13h-9.1v5.8h7.56a2 2 0 0 1 2.2 2.13v.62a1.94 1.94 0 0 1-2.2 2.09h-7.56v5.64h9.25a2 2 0 0 1 2.2 2.13v.62a1.93 1.93 0 0 1-2.2 2.09zm-56.44-13a8.22 8.22 0 1 0 8.22-8.44 8.33 8.33 0 0 0-8.22 8.44zm33.28-8.18v6.79h5.06a3.28 3.28 0 0 0 3.3-3.38 3.36 3.36 0 0 0-3.3-3.41zM8.29 14.68a6.55 6.55 0 0 0 6.57 6.49 7.17 7.17 0 0 0 4.44-1.72 4.45 4.45 0 0 1 2.83-1.17 4.26 4.26 0 0 1 2.61.88 3.67 3.67 0 0 1 1.47 3 4.28 4.28 0 0 1-1.21 3c-1.94 2.2-5.94 4.18-10.42 4.18a14.68 14.68 0 0 1 0-29.36 14.2 14.2 0 0 1 10.27 4.18 4.28 4.28 0 0 1 1.21 3 3.72 3.72 0 0 1-1.47 3 4.22 4.22 0 0 1-2.61.88 4.45 4.45 0 0 1-2.83-1.17 7 7 0 0 0-4.37-1.72 6.53 6.53 0 0 0-6.49 6.53z"/></g><path class="cls-1" d="M48.68 53.72c-3.59-1-6.44-3.33-6.44-7.18 0-4.11 3.26-7.73 8.33-7.73 4.29 0 6.7 2.55 7.36 4.33.41 1.07.15 1.59-.7 1.85l-1 .33a1 1 0 0 1-1.44-.55 4.39 4.39 0 0 0-4.14-2.41c-2.74 0-4.66 1.78-4.66 4a4 4 0 0 0 3.37 3.74l2.74.7c4.29 1.11 6.81 3.74 6.81 7.25 0 3.92-3.07 7.85-8.73 7.85-5.48 0-7.77-3.7-8.36-5.77-.33-1.11-.07-1.55.81-1.81l1-.3c1.07-.33 1.37.3 1.67 1a5 5 0 0 0 5 3.37c3.18 0 5-1.92 5-4.11 0-1.63-1-3-3.85-3.77zM71.81 65.45a1.27 1.27 0 0 1-1.41-1.41V42.69h-6.44a1.27 1.27 0 0 1-1.41-1.41v-.67a1.27 1.27 0 0 1 1.41-1.41h16.5a1.27 1.27 0 0 1 1.41 1.41v.67a1.27 1.27 0 0 1-1.41 1.41h-6.44v21.35a1.27 1.27 0 0 1-1.41 1.41zM104 65.45c-.85 0-1.07-.52-1.48-1.52l-2.23-5.44H89.12l-2.18 5.44c-.41 1-.63 1.52-1.48 1.52h-1.48a.93.93 0 0 1-1-.89 5.07 5.07 0 0 1 .48-1.48l9.07-22.46a1.91 1.91 0 0 1 1.89-1.41h.7a1.91 1.91 0 0 1 1.89 1.41l9 22.46a5.09 5.09 0 0 1 .48 1.48.93.93 0 0 1-1 .89zm-9.25-20.94l-4.29 10.62h8.55zM128.2 65.45a1.28 1.28 0 0 1-1.33-1l-1.33-4.66a6 6 0 0 0-6-4.59h-3.92v8.88a1.27 1.27 0 0 1-1.41 1.41h-.81a1.27 1.27 0 0 1-1.41-1.41V40.62a1.27 1.27 0 0 1 1.41-1.41h8.89a8 8 0 0 1 8 8 7.62 7.62 0 0 1-4.59 6.88 8.32 8.32 0 0 1 3.37 4.81l1.29 4.48a4.7 4.7 0 0 1 .22 1 1.1 1.1 0 0 1-1.18 1zm-6.14-13.76a4.45 4.45 0 0 0 4.51-4.48 4.51 4.51 0 0 0-4.51-4.51h-6.4v9zM143.48 53.72c-3.59-1-6.44-3.33-6.44-7.18 0-4.11 3.26-7.73 8.33-7.73 4.29 0 6.7 2.55 7.36 4.33.41 1.07.15 1.59-.7 1.85l-1 .33a1 1 0 0 1-1.44-.55 4.39 4.39 0 0 0-4.14-2.41c-2.74 0-4.66 1.78-4.66 4a4 4 0 0 0 3.37 3.74l2.74.7c4.29 1.11 6.81 3.74 6.81 7.25 0 3.92-3.07 7.85-8.73 7.85-5.48 0-7.77-3.7-8.36-5.77-.33-1.11-.07-1.55.81-1.81l1-.3c1.07-.33 1.37.3 1.67 1a5 5 0 0 0 5 3.37c3.18 0 5-1.92 5-4.11 0-1.63-1-3-3.85-3.77zM185.18 65.37a1.26 1.26 0 0 1-1.4-1.4V53.81h-12.72v10.15a1.26 1.26 0 0 1-1.4 1.4h-.81a1.26 1.26 0 0 1-1.4-1.4V40.7a1.26 1.26 0 0 1 1.4-1.4h.81a1.26 1.26 0 0 1 1.4 1.4v9.7h12.72v-9.7a1.26 1.26 0 0 1 1.4-1.4h.81a1.26 1.26 0 0 1 1.4 1.4v23.27a1.26 1.26 0 0 1-1.4 1.4zM196.13 65.37a1.26 1.26 0 0 1-1.4-1.4V40.7a1.26 1.26 0 0 1 1.4-1.4h8.82c6.62 0 12.39 4.52 12.39 13s-5.84 13-12.46 13zm8.64-3.46c4.82 0 8.86-3.2 8.86-9.56s-4-9.59-8.79-9.59h-6.55v19.15z"/></svg>
