<svg id="Lager_1" data-name="Lager 1" xmlns="http://www.w3.org/2000/svg" viewBox="0 0 163.5 65.67"><defs><style>.cls-1{fill:#fff;}</style></defs><title>asd</title><g id="_Grupp_" data-name="&lt;Grupp&gt;"><path id="_Stansad_bana_" data-name="&lt;Stansad bana&gt;" class="cls-1" d="M73.02 14.68a13.47 13.47 0 1 1 13.47 13.36 13.46 13.46 0 0 1-13.47-13.36zm-16 3c-.66 1-1.14 1.69-2.5 1.69h-.7c-1.36 0-1.83-.73-2.5-1.69l-4.44-6.57v14.46a2 2 0 0 1-2.2 2.13h-.73a2 2 0 0 1-2.2-2.13V3.81a1.94 1.94 0 0 1 2.2-2.13h.92A2.53 2.53 0 0 1 47.33 3l6.83 10 6.86-10a2.47 2.47 0 0 1 2.46-1.32h.92a1.94 1.94 0 0 1 2.2 2.13v21.76a2 2 0 0 1-2.2 2.13h-.73a2 2 0 0 1-2.2-2.13V11.08zm54.56 7.89a1.94 1.94 0 0 1-2.17 2.13h-.77a2 2 0 0 1-2.2-2.13V3.81a2 2 0 0 1 2.2-2.13h8.26a8.32 8.32 0 0 1 8.29 8.26 7.93 7.93 0 0 1-3.82 6.53 8.36 8.36 0 0 1 2.61 4.11l1.21 4.18a4.77 4.77 0 0 1 .26 1.28 1.82 1.82 0 0 1-2 1.65h-1.16a2 2 0 0 1-2.09-1.58l-1.2-4.3a4.87 4.87 0 0 0-4.7-3.67h-2.75zm23.15 2.13a2 2 0 0 1-2.2-2.13V3.81a2 2 0 0 1 2.2-2.13h12a2 2 0 0 1 2.2 2.13v.59a2 2 0 0 1-2.2 2.13h-9.1v5.8h7.56a2 2 0 0 1 2.2 2.13v.62a1.94 1.94 0 0 1-2.2 2.09h-7.56v5.64h9.25a2 2 0 0 1 2.2 2.13v.62a1.93 1.93 0 0 1-2.2 2.09zm-56.44-13a8.22 8.22 0 1 0 8.22-8.44 8.33 8.33 0 0 0-8.22 8.44zm33.28-8.18v6.79h5.06a3.28 3.28 0 0 0 3.3-3.38 3.36 3.36 0 0 0-3.3-3.41zM8.29 14.68a6.55 6.55 0 0 0 6.57 6.49 7.17 7.17 0 0 0 4.44-1.72 4.45 4.45 0 0 1 2.83-1.17 4.26 4.26 0 0 1 2.61.88 3.67 3.67 0 0 1 1.47 3 4.28 4.28 0 0 1-1.21 3c-1.94 2.2-5.94 4.18-10.42 4.18a14.68 14.68 0 0 1 0-29.36 14.2 14.2 0 0 1 10.27 4.18 4.28 4.28 0 0 1 1.21 3 3.72 3.72 0 0 1-1.47 3 4.22 4.22 0 0 1-2.61.88 4.45 4.45 0 0 1-2.83-1.17 7 7 0 0 0-4.37-1.72 6.53 6.53 0 0 0-6.49 6.53z"/></g><path class="cls-1" d="M47.68 53.61c-3.57-1-6.4-3.31-6.4-7.13 0-4.08 3.23-7.68 8.27-7.68 4.3 0 6.58 2.5 7.31 4.3a2.37 2.37 0 0 1 .22.85c0 .51-.37.81-.92 1l-1 .33a1 1 0 0 1-1.43-.55 4.36 4.36 0 0 0-4.12-2.39c-2.72 0-4.63 1.76-4.63 3.93a4 4 0 0 0 3.35 3.71l2.72.7c4.26 1.1 6.76 3.71 6.76 7.2 0 3.9-3.05 7.79-8.67 7.79-5.44 0-7.72-3.68-8.31-5.73-.33-1.1-.11-1.51.81-1.8l1-.29c1.07-.33 1.36.29 1.65 1a5 5 0 0 0 5 3.35c3.16 0 4.93-1.91 4.93-4.08 0-1.62-1-3-3.82-3.75zM66 65.26a1.26 1.26 0 0 1-1.4-1.4V40.6a1.26 1.26 0 0 1 1.4-1.4h12.87a1.26 1.26 0 0 1 1.4 1.4v.66a1.26 1.26 0 0 1-1.4 1.4H68.21v7.87h9a1.26 1.26 0 0 1 1.4 1.4v.66a1.26 1.26 0 0 1-1.4 1.4h-9v7.82h10.84a1.26 1.26 0 0 1 1.4 1.4v.66a1.26 1.26 0 0 1-1.4 1.4zM103.84 65.26a1.27 1.27 0 0 1-1.32-1l-1.32-4.63a6 6 0 0 0-5.92-4.56h-3.9v8.82a1.26 1.26 0 0 1-1.4 1.4h-.81a1.26 1.26 0 0 1-1.4-1.4V40.6a1.26 1.26 0 0 1 1.4-1.4h8.82a8 8 0 0 1 7.9 7.94 7.57 7.57 0 0 1-4.56 6.84 8.26 8.26 0 0 1 3.34 4.78l1.29 4.45a4.7 4.7 0 0 1 .22 1 1.09 1.09 0 0 1-1.18 1zm-6.1-13.67a4.42 4.42 0 0 0 4.48-4.45 4.48 4.48 0 0 0-4.48-4.48h-6.36v8.93zM114.77 65.26a1.26 1.26 0 0 1-1.4-1.4V40.6a1.26 1.26 0 0 1 1.4-1.4h.81a1.26 1.26 0 0 1 1.4 1.4v23.27a1.26 1.26 0 0 1-1.4 1.4zM126.18 65.26a1.26 1.26 0 0 1-1.4-1.4V40.6a1.26 1.26 0 0 1 1.4-1.4h12.87a1.26 1.26 0 0 1 1.4 1.4v.66a1.26 1.26 0 0 1-1.4 1.4h-10.67v7.87h9a1.26 1.26 0 0 1 1.4 1.4v.66a1.26 1.26 0 0 1-1.4 1.4h-9v7.82h10.84a1.26 1.26 0 0 1 1.4 1.4v.66a1.26 1.26 0 0 1-1.4 1.4zM153.39 53.61c-3.57-1-6.4-3.31-6.4-7.13 0-4.08 3.24-7.68 8.27-7.68 4.3 0 6.58 2.5 7.32 4.3a2.37 2.37 0 0 1 .22.85c0 .51-.37.81-.92 1l-1 .33a1 1 0 0 1-1.43-.55 4.36 4.36 0 0 0-4.12-2.39c-2.72 0-4.63 1.76-4.63 3.93a4 4 0 0 0 3.35 3.71l2.72.7c4.26 1.1 6.76 3.71 6.76 7.2 0 3.9-3.05 7.79-8.67 7.79-5.44 0-7.72-3.68-8.31-5.73-.33-1.1-.11-1.51.81-1.8l1-.29c1.07-.33 1.36.29 1.65 1a5 5 0 0 0 5 3.35c3.16 0 4.93-1.91 4.93-4.08 0-1.62-1-3-3.82-3.75z"/></svg>
