<svg id="Lager_1" xmlns="http://www.w3.org/2000/svg" x="0px" y="0px" viewBox="0 0 841.9 595.3" enable-background="new 0 0 841.9 595.3"><style>.st0{fill:#350F10;}</style><g id="XMLID_28_"><path id="XMLID_37_" class="st0" d="M222.7 283.9c0-7.4 6.1-13.4 13.5-13.4s13.5 6 13.5 13.4-6.1 13.4-13.5 13.4c-7.4-.1-13.5-6.1-13.5-13.4zm-16 2.9c-.7 1-1.1 1.7-2.5 1.7h-.7c-1.4 0-1.8-.7-2.5-1.7l-4.4-6.6v14.5c0 1.3-.8 2.1-2.2 2.1h-.7c-1.5 0-2.2-.8-2.2-2.1V273c0-1.4.7-2.1 2.2-2.1h.9c1.2 0 1.8.4 2.5 1.3l6.8 10 6.9-10c.6-1 1.2-1.3 2.5-1.3h.9c1.5 0 2.2.8 2.2 2.1v21.8c0 1.3-.7 2.1-2.2 2.1h-.7c-1.5 0-2.2-.8-2.2-2.1v-14.5l-4.6 6.5zm54.6 7.9c0 1.3-.7 2.1-2.2 2.1h-.8c-1.4 0-2.2-.8-2.2-2.1V273c0-1.4.8-2.1 2.2-2.1h8.3c4.6 0 8.3 3.8 8.3 8.3 0 2.7-1.6 5.1-3.8 6.5 1.3 1.1 2.1 2.4 2.6 4.1l1.2 4.2c.2.6.3 1 .3 1.3 0 1-.9 1.7-2 1.7H272c-1.1 0-1.8-.6-2.1-1.6l-1.2-4.3c-.5-1.8-2.1-3.7-4.7-3.7h-2.8v7.3zm23.1 2.2c-1.4 0-2.2-.8-2.2-2.1V273c0-1.4.8-2.1 2.2-2.1h12c1.4 0 2.2.7 2.2 2.1v.6c0 1.4-.8 2.1-2.2 2.1h-9.1v5.8h7.6c1.4 0 2.2.7 2.2 2.1v.6c0 1.4-.8 2.1-2.2 2.1h-7.6v5.7h9.2c1.4 0 2.2.7 2.2 2.1v.6c0 1.4-.8 2.1-2.2 2.1h-12.1zm-56.4-13c0 4.7 3.7 8.4 8.2 8.4 4.5 0 8.2-3.8 8.2-8.4 0-4.6-3.7-8.4-8.2-8.4-4.6-.1-8.2 3.7-8.2 8.4zm33.3-8.2v6.8h5.1c1.9 0 3.3-1.5 3.3-3.4s-1.5-3.4-3.3-3.4h-5.1zM158 283.9c0 3.5 2.9 6.5 6.6 6.5 1.7 0 3-.7 4.4-1.7.8-.6 1.5-1.2 2.8-1.2 1.1 0 2 .4 2.6.9 1 .7 1.5 1.8 1.5 3 0 1.4-.6 2.3-1.2 3-1.9 2.2-5.9 4.2-10.4 4.2-8.3 0-14.6-6.8-14.6-14.7s6.3-14.7 14.6-14.7c4.4 0 8.3 2 10.3 4.2.6.7 1.2 1.6 1.2 3 0 1.2-.5 2.3-1.5 3-.8.6-1.7.9-2.6.9-1.3 0-2.1-.6-2.8-1.2-1.3-1-2.5-1.7-4.4-1.7-3.6 0-6.5 2.9-6.5 6.5z"/></g><path class="st0" d="M192.8 334.5c-.9 0-1.4-.5-1.4-1.4v-23.3c0-.9.5-1.4 1.4-1.4h12.7c.9 0 1.4.5 1.4 1.4v.7c0 .9-.5 1.4-1.4 1.4H195v8.2h9c.9 0 1.4.5 1.4 1.4v.7c0 .9-.5 1.4-1.4 1.4h-9v9.5c0 .9-.5 1.4-1.4 1.4h-.8zM214.7 334.5c-.9 0-1.4-.5-1.4-1.4v-23.3c0-.9.5-1.4 1.4-1.4h.8c.9 0 1.4.5 1.4 1.4v23.3c0 .9-.5 1.4-1.4 1.4h-.8zM240.9 334.5c-.7 0-1.1-.4-1.3-1l-1.3-4.6c-.7-2.3-2.5-4.6-5.9-4.6h-3.9v8.8c0 .9-.5 1.4-1.4 1.4h-.8c-.9 0-1.4-.5-1.4-1.4v-23.3c0-.9.5-1.4 1.4-1.4h8.8c4.4 0 7.9 3.6 7.9 7.9 0 3-1.9 5.6-4.6 6.8 1.7 1.3 2.8 2.7 3.3 4.8l1.3 4.4c.1.5.2.8.2 1 0 .6-.5 1-1.2 1h-1.1zm-6.1-13.7c2.5 0 4.5-1.9 4.5-4.4 0-2.5-2-4.5-4.5-4.5h-6.4v8.9h6.4zM255.8 322.8c-3.6-1-6.4-3.3-6.4-7.1 0-4.1 3.2-7.7 8.3-7.7 4.3 0 6.6 2.5 7.3 4.3.1.4.2.6.2.8 0 .5-.4.8-.9 1l-1 .3c-.7.2-1.1.1-1.4-.6-.8-1.5-2.1-2.4-4.1-2.4-2.7 0-4.6 1.8-4.6 3.9 0 1.9 1.4 3.2 3.3 3.7l2.7.7c4.3 1.1 6.8 3.7 6.8 7.2 0 3.9-3.1 7.8-8.7 7.8-5.4 0-7.7-3.7-8.3-5.7-.3-1.1-.1-1.5.8-1.8l1-.3c1.1-.3 1.4.3 1.7 1 .6 1.3 1.6 3.3 5 3.3 3.2 0 4.9-1.9 4.9-4.1 0-1.6-1-3-3.8-3.7l-2.8-.6zM279.6 334.5c-.9 0-1.4-.5-1.4-1.4v-21.2h-6.4c-.9 0-1.4-.5-1.4-1.4v-.7c0-.9.5-1.4 1.4-1.4h16.4c.9 0 1.4.5 1.4 1.4v.7c0 .9-.5 1.4-1.4 1.4h-6.4v21.2c0 .9-.5 1.4-1.4 1.4h-.8z"/></svg>
