<svg id="Lager_1" data-name="Lager 1" xmlns="http://www.w3.org/2000/svg" viewBox="0 0 206.2 65.67"><defs><style>.cls-1{fill:#fff;}</style></defs><title>asd</title><g id="_Grupp_" data-name="&lt;Grupp&gt;"><path id="_Stansad_bana_" data-name="&lt;Stansad bana&gt;" class="cls-1" d="M73.02 14.68a13.47 13.47 0 1 1 13.47 13.36 13.46 13.46 0 0 1-13.47-13.36zm-16 3c-.66 1-1.14 1.69-2.5 1.69h-.7c-1.36 0-1.83-.73-2.5-1.69l-4.44-6.57v14.46a2 2 0 0 1-2.2 2.13h-.73a2 2 0 0 1-2.2-2.13V3.81a1.94 1.94 0 0 1 2.2-2.13h.92A2.53 2.53 0 0 1 47.33 3l6.83 10 6.86-10a2.47 2.47 0 0 1 2.46-1.32h.92a1.94 1.94 0 0 1 2.2 2.13v21.76a2 2 0 0 1-2.2 2.13h-.73a2 2 0 0 1-2.2-2.13V11.08zm54.56 7.89a1.94 1.94 0 0 1-2.17 2.13h-.77a2 2 0 0 1-2.2-2.13V3.81a2 2 0 0 1 2.2-2.13h8.26a8.32 8.32 0 0 1 8.29 8.26 7.93 7.93 0 0 1-3.82 6.53 8.36 8.36 0 0 1 2.61 4.11l1.21 4.18a4.77 4.77 0 0 1 .26 1.28 1.82 1.82 0 0 1-2 1.65h-1.16a2 2 0 0 1-2.09-1.58l-1.2-4.3a4.87 4.87 0 0 0-4.7-3.67h-2.75zm23.15 2.13a2 2 0 0 1-2.2-2.13V3.81a2 2 0 0 1 2.2-2.13h12a2 2 0 0 1 2.2 2.13v.59a2 2 0 0 1-2.2 2.13h-9.1v5.8h7.56a2 2 0 0 1 2.2 2.13v.62a1.94 1.94 0 0 1-2.2 2.09h-7.56v5.64h9.25a2 2 0 0 1 2.2 2.13v.62a1.93 1.93 0 0 1-2.2 2.09zm-56.44-13a8.22 8.22 0 1 0 8.22-8.44 8.33 8.33 0 0 0-8.22 8.44zm33.28-8.18v6.79h5.06a3.28 3.28 0 0 0 3.3-3.38 3.36 3.36 0 0 0-3.3-3.41zM8.29 14.68a6.55 6.55 0 0 0 6.57 6.49 7.17 7.17 0 0 0 4.44-1.72 4.45 4.45 0 0 1 2.83-1.17 4.26 4.26 0 0 1 2.61.88 3.67 3.67 0 0 1 1.47 3 4.28 4.28 0 0 1-1.21 3c-1.94 2.2-5.94 4.18-10.42 4.18a14.68 14.68 0 0 1 0-29.36 14.2 14.2 0 0 1 10.27 4.18 4.28 4.28 0 0 1 1.21 3 3.72 3.72 0 0 1-1.47 3 4.22 4.22 0 0 1-2.61.88 4.45 4.45 0 0 1-2.83-1.17 7 7 0 0 0-4.37-1.72 6.53 6.53 0 0 0-6.49 6.53z"/></g><path class="cls-1" d="M174.03 65.26a1.26 1.26 0 0 1-1.4-1.4V53.72h-12.71v10.15a1.26 1.26 0 0 1-1.4 1.4h-.81a1.26 1.26 0 0 1-1.4-1.4V40.6a1.26 1.26 0 0 1 1.4-1.4h.81a1.26 1.26 0 0 1 1.4 1.4v9.7h12.72v-9.7a1.26 1.26 0 0 1 1.4-1.4h.81a1.26 1.26 0 0 1 1.4 1.4v23.27a1.26 1.26 0 0 1-1.4 1.4zM184.99 65.26a1.26 1.26 0 0 1-1.4-1.4V40.6a1.26 1.26 0 0 1 1.4-1.4h8.82c6.62 0 12.39 4.52 12.39 13s-5.84 13-12.46 13zm8.64-3.46c4.82 0 8.86-3.2 8.86-9.56s-4-9.59-8.79-9.59h-6.51v19.16zM67.46 53.02c0 7.2-6.21 12.64-13.34 12.64a13.44 13.44 0 1 1 10-22.46c.63.66.51 1.25-.18 1.91l-.62.59c-.84.81-1.54.29-2.06-.18a9.81 9.81 0 1 0-7.13 16.62 9.38 9.38 0 0 0 9.52-7.43h-6.51a1.28 1.28 0 0 1-1.4-1.4v-.66a1.29 1.29 0 0 1 1.4-1.4h9a1.24 1.24 0 0 1 1.4 1.4zM86.03 65.66a13.44 13.44 0 1 1 13.45-13.42 13.4 13.4 0 0 1-13.45 13.42zm9.78-13.42a9.76 9.76 0 1 0-9.78 9.89 9.9 9.9 0 0 0 9.77-9.88zM107.05 65.26a1.26 1.26 0 0 1-1.4-1.4V40.6a1.26 1.26 0 0 1 1.4-1.4h.81a1.26 1.26 0 0 1 1.4 1.4v21.21h11.1a1.26 1.26 0 0 1 1.4 1.4v.66a1.26 1.26 0 0 1-1.4 1.4zM129.37 65.26a1.26 1.26 0 0 1-1.4-1.4V40.6a1.26 1.26 0 0 1 1.4-1.4h12.68a1.26 1.26 0 0 1 1.4 1.4v.66a1.26 1.26 0 0 1-1.4 1.4h-10.48v8.23h9a1.26 1.26 0 0 1 1.4 1.4v.66a1.26 1.26 0 0 1-1.4 1.4h-9v9.52a1.26 1.26 0 0 1-1.4 1.4z"/></svg>
