<svg xmlns="http://www.w3.org/2000/svg" viewBox="0 0 224.89 65.67"><defs><style>.cls-1{fill:#350f10;}</style></defs><title>Resurs 4</title><g id="Lager_2" data-name="Lager 2"><g id="Lager_1-2" data-name="Lager 1"><g id="_Grupp_" data-name="&lt;Grupp&gt;"><path id="_Stansad_bana_" data-name="&lt;Stansad bana&gt;" class="cls-1" d="M73 14.68A13.47 13.47 0 1 1 86.49 28 13.46 13.46 0 0 1 73 14.68zm-16 3c-.66 1-1.14 1.69-2.5 1.69h-.7c-1.36 0-1.83-.73-2.5-1.69l-4.44-6.57v14.43a2 2 0 0 1-2.2 2.13h-.73a2 2 0 0 1-2.2-2.13V3.78a1.94 1.94 0 0 1 2.2-2.13h.92A2.53 2.53 0 0 1 47.3 3l6.83 10L61 3a2.47 2.47 0 0 1 2.46-1.32h.92a1.94 1.94 0 0 1 2.2 2.13v21.73a2 2 0 0 1-2.2 2.13h-.73a2 2 0 0 1-2.2-2.13V11.08zm54.56 7.89a1.94 1.94 0 0 1-2.17 2.13h-.77a2 2 0 0 1-2.2-2.13V3.78a2 2 0 0 1 2.2-2.13h8.26a8.32 8.32 0 0 1 8.29 8.26 7.93 7.93 0 0 1-3.82 6.53 8.36 8.36 0 0 1 2.65 4.11l1.21 4.18a4.77 4.77 0 0 1 .26 1.28 1.82 1.82 0 0 1-2 1.65h-1.1a2 2 0 0 1-2.09-1.58L119 21.8a4.87 4.87 0 0 0-4.7-3.67h-2.75zm23.15 2.13a2 2 0 0 1-2.2-2.13V3.78a2 2 0 0 1 2.2-2.13h12a2 2 0 0 1 2.2 2.13v.59a2 2 0 0 1-2.2 2.13h-9.1v5.8h7.56a2 2 0 0 1 2.2 2.13V15a1.94 1.94 0 0 1-2.2 2.09h-7.56v5.69h9.25a2 2 0 0 1 2.2 2.13v.62a1.93 1.93 0 0 1-2.2 2.09zm-56.44-13a8.22 8.22 0 1 0 16.44 0 8.22 8.22 0 1 0-16.44 0zm33.28-8.18v6.79h5.06a3.28 3.28 0 0 0 3.3-3.38 3.36 3.36 0 0 0-3.3-3.41zM8.29 14.68a6.55 6.55 0 0 0 6.57 6.49 7.17 7.17 0 0 0 4.44-1.72 4.45 4.45 0 0 1 2.83-1.17 4.26 4.26 0 0 1 2.61.88 3.67 3.67 0 0 1 1.47 3 4.28 4.28 0 0 1-1.21 3c-2 2.21-6 4.2-10.43 4.2a14.68 14.68 0 0 1 0-29.36 14.2 14.2 0 0 1 10.27 4.18 4.28 4.28 0 0 1 1.21 3 3.72 3.72 0 0 1-1.47 3 4.22 4.22 0 0 1-2.61.88 4.45 4.45 0 0 1-2.83-1.17 7 7 0 0 0-4.37-1.72 6.53 6.53 0 0 0-6.48 6.51z"/></g><path class="cls-1" d="M47.69 53.61c-3.57-1-6.4-3.31-6.4-7.13 0-4.08 3.23-7.68 8.27-7.68 4.3 0 6.58 2.5 7.31 4.3a2.37 2.37 0 0 1 .22.84c0 .51-.37.81-.92 1l-1 .33a1 1 0 0 1-1.43-.55 4.36 4.36 0 0 0-4.12-2.39c-2.72 0-4.63 1.76-4.63 3.93A4 4 0 0 0 48.31 50l2.72.7c4.26 1.1 6.76 3.71 6.76 7.2 0 3.9-3.05 7.79-8.67 7.79-5.44 0-7.72-3.68-8.31-5.73-.33-1.1-.11-1.51.81-1.8l1-.29c1.07-.33 1.36.29 1.65 1a5 5 0 0 0 5 3.35c3.16 0 4.93-1.91 4.93-4.08 0-1.62-1-3-3.82-3.75zM65.37 65.26a1.26 1.26 0 0 1-1.4-1.4V40.6a1.26 1.26 0 0 1 1.4-1.4h8.82a7.92 7.92 0 0 1 0 15.84h-6.62v8.82a1.26 1.26 0 0 1-1.4 1.4zm8.56-13.67a4.47 4.47 0 1 0 0-8.93h-6.36v8.93zM99.81 65.67a13.44 13.44 0 1 1 13.45-13.42 13.4 13.4 0 0 1-13.45 13.42zm9.78-13.42a9.76 9.76 0 1 0-9.78 9.89 9.9 9.9 0 0 0 9.78-9.89zM135.32 65.26a1.27 1.27 0 0 1-1.32-1l-1.32-4.63a6 6 0 0 0-5.93-4.63h-3.9v8.82a1.26 1.26 0 0 1-1.4 1.4h-.81a1.26 1.26 0 0 1-1.4-1.4V40.6a1.26 1.26 0 0 1 1.4-1.4h8.82a8 8 0 0 1 7.9 7.94 7.57 7.57 0 0 1-4.54 6.86 8.26 8.26 0 0 1 3.34 4.78l1.29 4.45a4.67 4.67 0 0 1 .22 1 1.09 1.09 0 0 1-1.18 1zm-6.1-13.67a4.42 4.42 0 0 0 4.48-4.45 4.48 4.48 0 0 0-4.48-4.48h-6.36v8.93zM152.12 65.26a1.26 1.26 0 0 1-1.4-1.4v-21.2h-6.4a1.26 1.26 0 0 1-1.4-1.4v-.66a1.26 1.26 0 0 1 1.4-1.4h16.39a1.26 1.26 0 0 1 1.4 1.4v.66a1.26 1.26 0 0 1-1.4 1.4h-6.4v21.21a1.26 1.26 0 0 1-1.4 1.4zM192.72 65.26a1.26 1.26 0 0 1-1.4-1.4V53.72h-12.71v10.15a1.26 1.26 0 0 1-1.4 1.4h-.81a1.26 1.26 0 0 1-1.4-1.4V40.6a1.26 1.26 0 0 1 1.4-1.4h.81a1.26 1.26 0 0 1 1.4 1.4v9.7h12.72v-9.7a1.26 1.26 0 0 1 1.4-1.4h.81a1.26 1.26 0 0 1 1.4 1.4v23.27a1.26 1.26 0 0 1-1.4 1.4zM203.68 65.26a1.26 1.26 0 0 1-1.4-1.4V40.6a1.26 1.26 0 0 1 1.4-1.4h8.82c6.62 0 12.39 4.52 12.39 13s-5.84 13-12.46 13zm8.64-3.46c4.82 0 8.86-3.2 8.86-9.56s-4-9.59-8.79-9.59h-6.51v19.16z"/></g></g></svg>
