<svg xmlns="http://www.w3.org/2000/svg" id="svg2" viewBox="0 0 15.706251 22.13125" height="6.2459307mm" width="4.432653mm"><defs id="defs4"><clipPath id="clipPath40423"><path d="M150.051 118.381h28.346v28.346h-28.346v-28.346z" id="path40425"/></clipPath></defs><g id="layer1"><g id="g40419"><g id="g40421" clip-path="url(#clipPath40423)" transform="matrix(1.25 0 0 -1.25 -197.43 176.76)"><g id="g40427"><path d="M170.507 135.124c0-3.47-2.813-6.282-6.283-6.282-3.469 0-6.282 2.812-6.282 6.282s2.813 6.282 6.282 6.282c3.47 0 6.283-2.812 6.283-6.282" id="path40429" fill="#100f0d"/></g><g id="g40431"><path d="M165.414 135.054c-.537-.536-1.409-.536-1.946 0-.536.536-.536 1.409 0 1.946.537.536 1.409.536 1.946 0 .536-.537.536-1.41 0-1.946m1.367 3.313c-1.29 1.29-3.39 1.29-4.68 0-1.291-1.29-1.291-3.39 0-4.68.347-.347.752-.601 1.184-.761l-1.162-1.162 1.367-1.368 3.291 3.291c1.29 1.29 1.29 3.39 0 4.68" id="path40433" fill="#fff"/></g><g id="g40435"><path d="M163.87 123.762l-.06-.061h-.726l-.061.061v1.694l-.06.06h-1.634l-.06-.06v-1.694l-.061-.061h-.726l-.06.061v4.114l.06.06h.726l.061-.06v-1.573l.06-.06h1.634l.06.06v1.573l.061.06h.726l.06-.06v-4.114z" id="path40437" fill="#100f0d"/></g><g id="g40439"><path d="M167.18 124.754c.173.218.26.573.26 1.065s-.087.847-.26 1.065c-.173.218-.47.326-.889.326h-.545l-.06-.06v-2.662l.06-.061h.545c.419 0 .716.109.889.327m.626 2.644c.321-.359.481-.885.481-1.579s-.16-1.22-.481-1.579c-.32-.359-.846-.539-1.576-.539h-1.331l-.06.061v4.114l.06.06h1.331c.73 0 1.256-.179 1.576-.538" id="path40441" fill="#100f0d"/></g></g></g></g></svg>
