<svg xmlns="http://www.w3.org/2000/svg" xmlns:xlink="http://www.w3.org/1999/xlink" version="1.0" width="25.000023" height="24.997601" id="svg2"><g id="layer1"><path d="M12.3925 24.1593c6.3834 0 11.557-5.1723 11.557-11.5508 0-6.38-5.1736-11.5523-11.557-11.5523C6.0067 1.0562.832 6.2285.832 12.6085c0 6.3785 5.1747 11.5508 11.5605 11.5508" id="path29969" fill="#fff"/><path d="M12.5007 23.3357v.014l-.0024-.01h-.0047c-5.983-.01-10.8308-4.8574-10.8308-10.8403 0-5.9805 4.8514-10.832 10.8355-10.838h.0024c5.9888.01 10.839 4.8527 10.839 10.8368 0 5.984-4.8502 10.8332-10.839 10.838m0-23.3362h-.0024C5.5954.01 0 5.6002 0 12.497c0 6.8992 5.5954 12.4958 12.4982 12.5006h.0024c6.9052 0 12.4994-5.6 12.4994-12.4982C25 5.599 19.4058.006 12.5006.0012" id="path29971" fill="#e22739"/><path d="M18.7034 14.7453c0-1.4726-.6216-2.8703-2.1024-3.7543-1.929-1.1542-4.4652-.5315-4.4652-.5315l.1973-1.3263h4.8682l.466-4.3404H8.5488l-1.242 9.3867s.7463-.7915 2.5267-.8235c1.7815-.03 2.5445.8117 2.572.8402.1318.1438.366.479.391.77.0427.4803-.0738.749-.289 1.053 0 0-.6405 1.039-2.6134.863-1.727-.1486-2.7847-1.0483-2.7847-1.0483l-.4908 3.4454s1.4238.7856 2.9594 1.1148c1.374.2947 2.6634.2163 2.6634.2163s2.308.081 4.2322-1.4654c.839-.6762 2.2296-2.113 2.2296-4.3997" id="path29973" fill="#1d2665"/><g id="g30981"><g id="g30983"><g transform="matrix(.206 0 0 -.206 208.787 -118.622)" id="g30985"><use id="use30987" width="744.09448" height="1052.3622" xlink:href="#id6622"/></g></g></g><g id="g30989"><g id="g30991"><g transform="matrix(.206 0 0 -.206 208.787 -118.622)" id="g30993"><use id="use30995" width="744.09448" height="1052.3622" xlink:href="#id6625"/></g></g></g><g id="g31193"><g id="g31195"><g transform="matrix(.206 0 0 -.206 207.588 -117.708)" id="g31197"><use id="use31199" width="744.09448" height="1052.3622" xlink:href="#id6690"/></g></g></g><g id="g31209"><g id="g31211"><g transform="matrix(.206 0 0 -.206 208.16 -117.88)" id="g31213"><use id="use31215" width="744.09448" height="1052.3622" xlink:href="#id6696"/></g></g></g><g id="g31253"><g id="g31255"><g transform="matrix(.206 0 0 -.206 207.53 -117.708)" id="g31257"><use id="use31259" width="744.09448" height="1052.3622" xlink:href="#id6704"/></g></g></g><g id="g31267"><g id="g31269"><g transform="matrix(.206 0 0 -.206 208.73 -118.45)" id="g31271"><use id="use31273" width="744.09448" height="1052.3622" xlink:href="#id6716"/></g></g></g><g id="g31317"><g id="g31319"><g transform="matrix(.206 0 0 -.206 208.33 -117.822)" id="g31321"><use id="use31323" width="744.09448" height="1052.3622" xlink:href="#id6734"/></g></g></g><g id="g31339"><g id="g31341"><g transform="matrix(.206 0 0 -.206 208.787 -118.45)" id="g31343"><use id="use31345" width="744.09448" height="1052.3622" xlink:href="#id6742"/></g></g></g><g id="g31389"><g id="g31391"><g transform="matrix(.206 0 0 -.206 207.702 -117.594)" id="g31393"><use id="use31395" width="744.09448" height="1052.3622" xlink:href="#id6759"/></g></g></g><g id="g31497"><g id="g31499"><g transform="matrix(.206 0 0 -.206 207.988 -117.708)" id="g31501"><use id="use31503" width="744.09448" height="1052.3622" xlink:href="#id6796"/></g></g></g><g id="g31553"><g id="g31555"><g transform="matrix(.206 0 0 -.206 207.53 -117.708)" id="g31557"><use id="use31559" width="744.09448" height="1052.3622" xlink:href="#id6816"/></g></g></g><g id="g31567"><g id="g31569"><g transform="matrix(.206 0 0 -.206 207.188 -117.537)" id="g31571"><use id="use31573" width="744.09448" height="1052.3622" xlink:href="#id6821"/></g></g></g><g id="g31575"><g id="g31577"><g transform="matrix(.206 0 0 -.206 207.817 -117.594)" id="g31579"><use id="use31581" width="744.09448" height="1052.3622" xlink:href="#id6824"/></g></g></g><g id="g31589"><g id="g31591"><g transform="matrix(.206 0 0 -.206 207.303 -117.48)" id="g31593"><use id="use31595" width="744.09448" height="1052.3622" xlink:href="#id6829"/></g></g></g><g id="g31611"><g id="g31613"><g transform="matrix(.206 0 0 -.206 208.787 -118.393)" id="g31615"><use id="use31617" width="744.09448" height="1052.3622" xlink:href="#id6837"/></g></g></g><g id="g31653"><g id="g31655"><g transform="matrix(.206 0 0 -.206 208.73 -118.45)" id="g31657"><use id="use31659" width="744.09448" height="1052.3622" xlink:href="#id6852"/></g></g></g><g id="g31977"><g id="g31979"><g transform="matrix(.206 0 0 -.206 207.817 -117.537)" id="g31981"><use id="use31983" width="744.09448" height="1052.3622" xlink:href="#id6781"/></g></g></g><g id="g32529"><g id="g32531"><g transform="matrix(.206 0 0 -.206 206.046 -121.934)" id="g32533"><use id="use32535" width="744.09448" height="1052.3622" xlink:href="#id7122"/></g></g></g><g id="g32565"><g id="g32567"><g transform="matrix(.206 0 0 -.206 205.76 -121.82)" id="g32569"><use id="use32571" width="744.09448" height="1052.3622" xlink:href="#id7134"/></g></g></g><g id="g32595"><g id="g32597"><g transform="matrix(.206 0 0 -.206 205.932 -121.934)" id="g32599"><use id="use32601" width="744.09448" height="1052.3622" xlink:href="#id7097"/></g></g></g><g id="g32637"><g id="g32639"><g transform="matrix(.206 0 0 -.206 205.76 -121.82)" id="g32641"><use id="use32643" width="744.09448" height="1052.3622" xlink:href="#id7158"/></g></g></g><g id="g32651"><g id="g32653"><g transform="matrix(.206 0 0 -.206 205.646 -121.82)" id="g32655"><use id="use32657" width="744.09448" height="1052.3622" xlink:href="#id7163"/></g></g></g><g id="g32715"><g id="g32717"><g transform="matrix(.206 0 0 -.206 207.017 -122.105)" id="g32719"><use id="use32721" width="744.09448" height="1052.3622" xlink:href="#id7186"/></g></g></g><g id="g32759"><g id="g32761"><g transform="matrix(.206 0 0 -.206 207.245 -122.105)" id="g32763"><use id="use32765" width="744.09448" height="1052.3622" xlink:href="#id7202"/></g></g></g><g id="g32767"><g id="g32769"><g transform="matrix(.206 0 0 -.206 206.846 -122.105)" id="g32771"><use id="use32773" width="744.09448" height="1052.3622" xlink:href="#id7205"/></g></g></g><g id="g32887"><g id="g32889"><g transform="matrix(.206 0 0 -.206 207.074 -122.105)" id="g32891"><use id="use32893" width="744.09448" height="1052.3622" xlink:href="#id7186"/></g></g></g><g id="g32917"><g id="g32919"><g transform="matrix(.206 0 0 -.206 207.417 -122.048)" id="g32921"><use id="use32923" width="744.09448" height="1052.3622" xlink:href="#id7257"/></g></g></g><g id="g32939"><g id="g32941"><g transform="matrix(.206 0 0 -.206 207.474 -122.048)" id="g32943"><use id="use32945" width="744.09448" height="1052.3622" xlink:href="#id7264"/></g></g></g><g id="g32989"><g id="g32991"><g transform="matrix(.263 0 0 -.206 207.474 -122.048)" id="g32993"><use id="use32995" width="744.09448" height="1052.3622" xlink:href="#id7282"/></g></g></g><g id="g32997"><g id="g32999"><g transform="matrix(.206 0 0 -.206 207.474 -122.048)" id="g33001"><use id="use33003" width="744.09448" height="1052.3622" xlink:href="#id7285"/></g></g></g><g id="g33053"><g id="g33055"><g transform="matrix(.206 0 0 -.206 204.276 -120.792)" id="g33057"><use id="use33059" width="744.09448" height="1052.3622" xlink:href="#id7305"/></g></g></g><g id="g33067"><g id="g33069"><g transform="matrix(.206 0 0 -.206 205.304 -121.65)" id="g33071"><use id="use33073" width="744.09448" height="1052.3622" xlink:href="#id7310"/></g></g></g><g id="g33089"><g id="g33091"><g transform="matrix(.206 0 0 -.206 206.846 -122.105)" id="g33093"><use id="use33095" width="744.09448" height="1052.3622" xlink:href="#id7318"/></g></g></g><g id="g33117"><g id="g33119"><g transform="matrix(.206 0 0 -.206 206.446 -122.048)" id="g33121"><use id="use33123" width="744.09448" height="1052.3622" xlink:href="#id7328"/></g></g></g><g id="g33131"><g id="g33133"><g transform="matrix(.206 0 0 -.206 207.188 -122.048)" id="g33135"><use id="use33137" width="744.09448" height="1052.3622" xlink:href="#id7333"/></g></g></g><g id="g33211"><g id="g33213"><g transform="matrix(.206 0 0 -.206 208.673 -121.706)" id="g33215"><use id="use33217" width="744.09448" height="1052.3622" xlink:href="#id7361"/></g></g></g><g id="g33443"><g id="g33445"><g transform="matrix(.206 0 0 -.206 206.617 -122.048)" id="g33447"><use id="use33449" width="744.09448" height="1052.3622" xlink:href="#id7439"/></g></g></g><g id="g33607"><g id="g33609"><g transform="matrix(.206 0 0 -.206 207.645 -122.048)" id="g33611"><use id="use33613" width="744.09448" height="1052.3622" xlink:href="#id7496"/></g></g></g><g id="g33745"><g id="g33747"><g transform="matrix(.263 0 0 -.206 207.188 -122.048)" id="g33749"><use id="use33751" width="744.09448" height="1052.3622" xlink:href="#id7243"/></g></g></g><g id="g33759"><g id="g33761"><g transform="matrix(.206 0 0 -.206 206.903 -122.105)" id="g33763"><use id="use33765" width="744.09448" height="1052.3622" xlink:href="#id7210"/></g></g></g><g id="g33795"><g id="g33797"><g transform="matrix(.206 0 0 -.206 206.674 -122.105)" id="g33799"><use id="use33801" width="744.09448" height="1052.3622" xlink:href="#id7444"/></g></g></g><g id="g33803"><g id="g33805"><g transform="matrix(.206 0 0 -.206 206.674 -122.105)" id="g33807"><use id="use33809" width="744.09448" height="1052.3622" xlink:href="#id7554"/></g></g></g><g id="g33999"><g id="g34001"><g transform="matrix(.206 0 0 -.206 204.618 -121.192)" id="g34003"><use id="use34005" width="744.09448" height="1052.3622" xlink:href="#id7620"/></g></g></g><g id="g34101"><g id="g34103"><g transform="matrix(.206 0 0 -.206 205.532 -121.763)" id="g34105"><use id="use34107" width="744.09448" height="1052.3622" xlink:href="#id7653"/></g></g></g><g id="g34503"><g id="g34505"><g transform="matrix(.206 0 0 -.206 208.902 -121.534)" id="g34507"><use id="use34509" width="744.09448" height="1052.3622" xlink:href="#id7795"/></g></g></g><g id="g34583"><g id="g34585"><g transform="matrix(.206 0 0 -.206 208.902 -121.534)" id="g34587"><use id="use34589" width="744.09448" height="1052.3622" xlink:href="#id7795"/></g></g></g><g id="g34653"><g id="g34655"><g transform="matrix(.206 0 0 -.206 208.902 -121.534)" id="g34657"><use id="use34659" width="744.09448" height="1052.3622" xlink:href="#id7844"/></g></g></g><g id="g34709"><g id="g34711"><g transform="matrix(.206 0 0 -.206 208.902 -121.534)" id="g34713"><use id="use34715" width="744.09448" height="1052.3622" xlink:href="#id7844"/></g></g></g><g id="g34907"><g id="g34909"><g transform="matrix(.206 0 0 -.206 206.617 -122.105)" id="g34911"><use id="use34913" width="744.09448" height="1052.3622" xlink:href="#id7931"/></g></g></g><g id="g35055"><g id="g35057"><g transform="matrix(.206 0 0 -.206 206.56 -122.105)" id="g35059"><use id="use35061" width="744.09448" height="1052.3622" xlink:href="#id7983"/></g></g></g><g id="g35153"><g id="g35155"><g transform="matrix(.206 0 0 -.206 206.332 -122.048)" id="g35157"><use id="use35159" width="744.09448" height="1052.3622" xlink:href="#id8017"/></g></g></g><g id="g35339"><g id="g35341"><g transform="matrix(.206 0 0 -.206 210.1 -117.88)" id="g35343"><use id="use35345" width="744.09448" height="1052.3622" xlink:href="#id8083"/></g></g></g><g id="g35411"><g id="g35413"><g transform="matrix(.206 0 0 -.206 206.617 -115.253)" id="g35415"><use id="use35417" width="744.09448" height="1052.3622" xlink:href="#id8109"/></g></g></g><g id="g35545"><g id="g35547"><g transform="matrix(.206 0 0 -.206 207.702 -115.367)" id="g35549"><use id="use35551" width="744.09448" height="1052.3622" xlink:href="#id8152"/></g></g></g><g id="g35715"><g id="g35717"><g transform="matrix(.206 0 0 -.206 210.1 -117.65)" id="g35719"><use id="use35721" width="744.09448" height="1052.3622" xlink:href="#id8083"/></g></g></g><g id="g35723"><g id="g35725"><g transform="matrix(.206 0 0 -.206 208.616 -115.824)" id="g35727"><use id="use35729" width="744.09448" height="1052.3622" xlink:href="#id8210"/></g></g></g><g id="g35745"><g id="g35747"><g transform="matrix(.206 0 0 -.206 209.016 -116.11)" id="g35749"><use id="use35751" width="744.09448" height="1052.3622" xlink:href="#id8213"/></g></g></g><g id="g35875"><g id="g35877"><g transform="matrix(.206 0 0 -.206 209.3 -116.395)" id="g35879"><use id="use35881" width="744.09448" height="1052.3622" xlink:href="#id8260"/></g></g></g><g id="g35891"><g id="g35893"><g transform="matrix(.206 0 0 -.206 209.815 -117.08)" id="g35895"><use id="use35897" width="744.09448" height="1052.3622" xlink:href="#id8169"/></g></g></g><g id="g35919"><g id="g35921"><g transform="matrix(.206 0 0 -.206 205.99 -115.31)" id="g35923"><use id="use35925" width="744.09448" height="1052.3622" xlink:href="#id8275"/></g></g></g><g id="g36093"><g id="g36095"><g transform="matrix(.206 0 0 -.206 209.13 -116.166)" id="g36097"><use id="use36099" width="744.09448" height="1052.3622" xlink:href="#id8241"/></g></g></g><g id="g36791"><g id="g36793"><g transform="matrix(.206 0 0 -.206 207.017 -115.31)" id="g36795"><use id="use36797" width="744.09448" height="1052.3622" xlink:href="#id8546"/></g></g></g><g id="g36863"><g id="g36865"><g transform="matrix(.206 0 0 -.206 206.732 -115.253)" id="g36867"><use id="use36869" width="744.09448" height="1052.3622" xlink:href="#id8143"/></g></g></g><g id="g36985"><g id="g36987"><g transform="matrix(.206 0 0 -.206 207.13 -115.253)" id="g36989"><use id="use36991" width="744.09448" height="1052.3622" xlink:href="#id8074"/></g></g></g><g id="g36999"><g id="g37001"><g transform="matrix(.206 0 0 -.206 207.13 -115.253)" id="g37003"><use id="use37005" width="744.09448" height="1052.3622" xlink:href="#id8607"/></g></g></g><g id="g37007"><g id="g37009"><g transform="matrix(.206 0 0 -.206 206.674 -115.253)" id="g37011"><use id="use37013" width="744.09448" height="1052.3622" xlink:href="#id8132"/></g></g></g><g id="g37035"><g id="g37037"><g transform="matrix(.263 0 0 -.206 205.932 -115.31)" id="g37039"><use id="use37041" width="744.09448" height="1052.3622" xlink:href="#id8394"/></g></g></g><g id="g37171"><g id="g37173"><g transform="matrix(.206 0 0 -.206 207.074 -115.31)" id="g37175"><use id="use37177" width="744.09448" height="1052.3622" xlink:href="#id8663"/></g></g></g><g id="g37677"><g id="g37679"><g transform="matrix(.206 0 0 -.206 208.502 -115.71)" id="g37681"><use id="use37683" width="744.09448" height="1052.3622" xlink:href="#id8839"/></g></g></g><g id="g37905"><g id="g37907"><g transform="matrix(.206 0 0 -.206 206.39 -119.82)" id="g37909"><use id="use37911" width="744.09448" height="1052.3622" xlink:href="#id8917"/></g></g></g><g id="g37927"><g id="g37929"><g transform="matrix(.206 0 0 -.206 206.39 -119.878)" id="g37931"><use id="use37933" width="744.09448" height="1052.3622" xlink:href="#id8917"/></g></g></g><g id="g38069"><g id="g38071"><g transform="matrix(.206 0 0 -.206 206.16 -118.508)" id="g38073"><use id="use38075" width="744.09448" height="1052.3622" xlink:href="#id8974"/></g></g></g><g id="g38189"><g id="g38191"><g transform="matrix(.206 0 0 -.206 206.332 -118.108)" id="g38193"><use id="use38195" width="744.09448" height="1052.3622" xlink:href="#id8982"/></g></g></g><g id="g38561"><g id="g38563"><g transform="matrix(.206 0 0 -.206 208.73 -116.737)" id="g38565"><use id="use38567" width="744.09448" height="1052.3622" xlink:href="#id9132"/></g></g></g><g id="g38777"><g id="g38779"><g transform="matrix(.206 0 0 -.206 208.388 -116.51)" id="g38781"><use id="use38783" width="744.09448" height="1052.3622" xlink:href="#id9132"/></g></g></g><g id="g38841"><g id="g38843"><g transform="matrix(.206 0 0 -.206 208.216 -116.395)" id="g38845"><use id="use38847" width="744.09448" height="1052.3622" xlink:href="#id9132"/></g></g></g><g id="g38947"><g id="g38949"><g transform="matrix(.206 0 0 -.206 208.445 -116.452)" id="g38951"><use id="use38953" width="744.09448" height="1052.3622" xlink:href="#id9227"/></g></g></g><g id="g39033"><g id="g39035"><g transform="matrix(.206 0 0 -.206 206.332 -115.71)" id="g39037"><use id="use39039" width="744.09448" height="1052.3622" xlink:href="#id9227"/></g></g></g><g id="g39183"><g id="g39185"><g transform="matrix(.206 0 0 -.206 207.76 -116.11)" id="g39187"><use id="use39189" width="744.09448" height="1052.3622" xlink:href="#id9227"/></g></g></g><g id="g39283"><g id="g39285"><g transform="matrix(.206 0 0 -.206 206.275 -115.71)" id="g39287"><use id="use39289" width="744.09448" height="1052.3622" xlink:href="#id9341"/></g></g></g><g id="g39297"><g id="g39299"><g transform="matrix(.206 0 0 -.206 206.79 -115.766)" id="g39301"><use id="use39303" width="744.09448" height="1052.3622" xlink:href="#id9341"/></g></g></g><g id="g39311"><g id="g39313"><g transform="matrix(.206 0 0 -.206 207.76 -116.11)" id="g39315"><use id="use39317" width="744.09448" height="1052.3622" xlink:href="#id9341"/></g></g></g><g id="g39361"><g id="g39363"><g transform="matrix(.206 0 0 -.206 205.932 -115.71)" id="g39365"><use id="use39367" width="744.09448" height="1052.3622" xlink:href="#id9227"/></g></g></g><g id="g39571"><g id="g39573"><g transform="matrix(.206 0 0 -.206 207.417 -115.938)" id="g39575"><use id="use39577" width="744.09448" height="1052.3622" xlink:href="#id9341"/></g></g></g><g id="g39587"><g id="g39589"><g transform="matrix(.206 0 0 -.206 204.447 -116.223)" id="g39591"><use id="use39593" width="744.09448" height="1052.3622" xlink:href="#id9426"/></g></g></g><g id="g39603"><g id="g39605"><g transform="matrix(.206 0 0 -.206 204.447 -116.223)" id="g39607"><use id="use39609" width="744.09448" height="1052.3622" xlink:href="#id9426"/></g></g></g><g id="g39659"><g id="g39661"><g transform="matrix(.206 0 0 -.263 205.018 -120.563)" id="g39663"><use id="use39665" width="744.09448" height="1052.3622" xlink:href="#id9447"/></g></g></g><g id="g39815"><g id="g39817"><g transform="matrix(.206 0 0 -.206 205.304 -120.85)" id="g39819"><use id="use39821" width="744.09448" height="1052.3622" xlink:href="#id9496"/></g></g></g><g id="g39907"><g id="g39909"><g transform="matrix(.206 0 0 -.206 205.36 -120.85)" id="g39911"><use id="use39913" width="744.09448" height="1052.3622" xlink:href="#id9496"/></g></g></g><g id="g39991"><g id="g39993"><g transform="matrix(.206 0 0 -.206 205.532 -120.963)" id="g39995"><use id="use39997" width="744.09448" height="1052.3622" xlink:href="#id9551"/></g></g></g><g id="g40021"><g id="g40023"><g transform="matrix(.206 0 0 -.206 205.418 -120.85)" id="g40025"><use id="use40027" width="744.09448" height="1052.3622" xlink:href="#id9546"/></g></g></g><g id="g40049"><g id="g40051"><g transform="matrix(.206 0 0 -.206 205.418 -120.85)" id="g40053"><use id="use40055" width="744.09448" height="1052.3622" xlink:href="#id9121"/></g></g></g><g id="g40077"><g id="g40079"><g transform="matrix(.206 0 0 -.206 205.532 -120.963)" id="g40081"><use id="use40083" width="744.09448" height="1052.3622" xlink:href="#id9577"/></g></g></g><g id="g40217"><g id="g40219"><g transform="matrix(.206 0 0 -.206 207.417 -121.592)" id="g40221"><use id="use40223" width="744.09448" height="1052.3622" xlink:href="#id9616"/></g></g></g><g id="g40403"><g id="g40405"><g transform="matrix(.206 0 0 -.206 205.704 -121.02)" id="g40407"><use id="use40409" width="744.09448" height="1052.3622" xlink:href="#id9680"/></g></g></g><g id="g40425"><g id="g40427"><g transform="matrix(.206 0 0 -.206 206.503 -121.477)" id="g40429"><use id="use40431" width="744.09448" height="1052.3622" xlink:href="#id9688"/></g></g></g><g id="g40461"><g id="g40463"><g transform="matrix(.206 0 0 -.206 207.474 -121.534)" id="g40465"><use id="use40467" width="744.09448" height="1052.3622" xlink:href="#id9700"/></g></g></g><g id="g40475"><g id="g40477"><g transform="matrix(.206 0 0 -.206 209.244 -121.135)" id="g40479"><use id="use40481" width="744.09448" height="1052.3622" xlink:href="#id9705"/></g></g></g><g id="g40505"><g id="g40507"><g transform="matrix(.206 0 0 -.206 206.96 -121.534)" id="g40509"><use id="use40511" width="744.09448" height="1052.3622" xlink:href="#id9715"/></g></g></g><g id="g40533"><g id="g40535"><g transform="matrix(.206 0 0 -.206 207.817 -121.592)" id="g40537"><use id="use40539" width="744.09448" height="1052.3622" xlink:href="#id9725"/></g></g></g><g id="g40865"><g id="g40867"><g transform="matrix(.206 0 0 -.206 206.79 -117.994)" id="g40869"><use id="use40871" width="744.09448" height="1052.3622" xlink:href="#id9811"/></g></g></g><g id="g40893"><g id="g40895"><g transform="matrix(.206 0 0 -.206 206.79 -117.994)" id="g40897"><use id="use40899" width="744.09448" height="1052.3622" xlink:href="#id8991"/></g></g></g><g id="g41061"><g id="g41063"><g transform="matrix(.206 0 0 -.206 206.96 -117.937)" id="g41065"><use id="use41067" width="744.09448" height="1052.3622" xlink:href="#id9811"/></g></g></g><g id="g41097"><g id="g41099"><g transform="matrix(.206 0 0 -.206 206.846 -117.937)" id="g41101"><use id="use41103" width="744.09448" height="1052.3622" xlink:href="#id9811"/></g></g></g><g id="g41143"><g id="g41145"><g transform="matrix(.206 0 0 -.206 206.903 -117.937)" id="g41147"><use id="use41149" width="744.09448" height="1052.3622" xlink:href="#id8991"/></g></g></g><g id="g41159"><g id="g41161"><g transform="matrix(.206 0 0 -.206 206.846 -117.994)" id="g41163"><use id="use41165" width="744.09448" height="1052.3622" xlink:href="#id9683"/></g></g></g><g id="g41231"><g id="g41233"><g transform="matrix(.206 0 0 -.206 207.93 -117.822)" id="g41235"><use id="use41237" width="744.09448" height="1052.3622" xlink:href="#id9792"/></g></g></g><g id="g41245"><g id="g41247"><g transform="matrix(.206 0 0 -.206 207.93 -117.822)" id="g41249"><use id="use41251" width="744.09448" height="1052.3622" xlink:href="#id9928"/></g></g></g><g id="g41339"><g id="g41341"><g transform="matrix(.206 0 0 -.206 207.988 -117.708)" id="g41343"><use id="use41345" width="744.09448" height="1052.3622" xlink:href="#id9742"/></g></g></g><g id="g41369"><g id="g41371"><g transform="matrix(.206 0 0 -.206 208.502 -118.222)" id="g41373"><use id="use41375" width="744.09448" height="1052.3622" xlink:href="#id9967"/></g></g></g><g id="g41397"><g id="g41399"><g transform="matrix(.206 0 0 -.206 208.673 -118.336)" id="g41401"><use id="use41403" width="744.09448" height="1052.3622" xlink:href="#id9976"/></g></g></g><g id="g41411"><g id="g41413"><g transform="matrix(.206 0 0 -.206 207.017 -117.88)" id="g41415"><use id="use41417" width="744.09448" height="1052.3622" xlink:href="#id9811"/></g></g></g><g id="g41433"><g id="g41435"><g transform="matrix(.206 0 0 -.206 207.188 -117.822)" id="g41437"><use id="use41439" width="744.09448" height="1052.3622" xlink:href="#id9811"/></g></g></g><g id="g41489"><g id="g41491"><g transform="matrix(.206 0 0 -.206 208.33 -117.994)" id="g41493"><use id="use41495" width="744.09448" height="1052.3622" xlink:href="#id10003"/></g></g></g><g id="g41681"><g id="g41683"><g transform="matrix(.206 0 0 -.206 207.76 -117.765)" id="g41685"><use id="use41687" width="744.09448" height="1052.3622" xlink:href="#id9705"/></g></g></g><g id="g41775"><g id="g41777"><g transform="matrix(.206 0 0 -.206 208.16 -117.88)" id="g41779"><use id="use41781" width="744.09448" height="1052.3622" xlink:href="#id10086"/></g></g></g><g id="g41943"><g id="g41945"><g transform="matrix(.206 0 0 -.206 208.616 -118.336)" id="g41947"><use id="use41949" width="744.09448" height="1052.3622" xlink:href="#id10140"/></g></g></g><g id="g41971"><g id="g41973"><g transform="matrix(.206 0 0 -.206 208.616 -118.336)" id="g41975"><use id="use41977" width="744.09448" height="1052.3622" xlink:href="#id10149"/></g></g></g><g id="g42007"><g id="g42009"><g transform="matrix(.206 0 0 -.206 207.188 -117.822)" id="g42011"><use id="use42013" width="744.09448" height="1052.3622" xlink:href="#id8991"/></g></g></g><g id="g42021"><g id="g42023"><g transform="matrix(.206 0 0 -.206 207.017 -117.88)" id="g42025"><use id="use42027" width="744.09448" height="1052.3622" xlink:href="#id8991"/></g></g></g><g id="g42037"><g id="g42039"><g transform="matrix(.206 0 0 -.206 208.16 -117.88)" id="g42041"><use id="use42043" width="744.09448" height="1052.3622" xlink:href="#id10170"/></g></g></g><g id="g42119"><g id="g42121"><g transform="matrix(.206 0 0 -.206 207.988 -117.708)" id="g42123"><use id="use42125" width="744.09448" height="1052.3622" xlink:href="#id10195"/></g></g></g><g id="g42591"><g id="g42593"><g transform="matrix(.206 0 0 -.206 208.445 -118.05)" id="g42595"><use id="use42597" width="744.09448" height="1052.3622" xlink:href="#id10334"/></g></g></g><g id="g42685"><g id="g42687"><g transform="matrix(.206 0 0 -.206 207.417 -117.765)" id="g42689"><use id="use42691" width="744.09448" height="1052.3622" xlink:href="#id10175"/></g></g></g><g id="g42693"><g id="g42695"><g transform="matrix(.206 0 0 -.206 207.417 -117.765)" id="g42697"><use id="use42699" width="744.09448" height="1052.3622" xlink:href="#id10170"/></g></g></g><g id="g42715"><g id="g42717"><g transform="matrix(.206 0 0 -.206 207.702 -117.765)" id="g42719"><use id="use42721" width="744.09448" height="1052.3622" xlink:href="#id9937"/></g></g></g><g id="g42723"><g id="g42725"><g transform="matrix(.206 0 0 -.206 208.102 -117.88)" id="g42727"><use id="use42729" width="744.09448" height="1052.3622" xlink:href="#id9104"/></g></g></g><g id="g42731"><g id="g42733"><g transform="matrix(.206 0 0 -.206 208.102 -117.88)" id="g42735"><use id="use42737" width="744.09448" height="1052.3622" xlink:href="#id10236"/></g></g></g><g id="g42747"><g id="g42749"><g transform="matrix(.206 0 0 -.206 207.245 -117.88)" id="g42751"><use id="use42753" width="744.09448" height="1052.3622" xlink:href="#id9577"/></g></g></g><g id="g44471"><g id="g44473"><g transform="matrix(77.292 0 0 -8.16 -32.45 445.508)" id="g44475"><use id="use44477" width="744.09448" height="1052.3622" xlink:href="#id10671"/></g></g></g><g id="g44491"><g id="g44493"><g transform="matrix(91.704 0 0 -8.402 -100.79 445.58)" id="g44495"><use id="use44497" width="744.09448" height="1052.3622" xlink:href="#id10678"/></g></g></g><g id="g44511"><g id="g44513"><g transform="matrix(119.52 0 0 -8.16 -98.61 445.44)" id="g44515"><use id="use44517" width="744.09448" height="1052.3622" xlink:href="#id10685"/></g></g></g></g></svg>
