<svg xmlns="http://www.w3.org/2000/svg" width="25.547501" height="39.18298" id="svg17503"><g id="layer1"><g id="g18304"><g id="g8945"><path d="M24.5007 12.808c0 6.58-5.2487 11.9138-11.7262 11.9138-6.4763 0-11.725-5.3338-11.725-11.9138S6.2982.8943 12.7745.8943c6.4775 0 11.7262 5.3337 11.7262 11.9137" id="path8947" fill="#fff"/></g><g id="g8949"><path d="M4.8525 20.695c-2.1137-2.1162-3.28-4.93-3.28-7.9225 0-2.9912 1.1663-5.805 3.28-7.9212C6.97 2.735 9.7813 1.57 12.775 1.57c2.9938 0 5.805 1.165 7.9188 3.2813 2.1175 2.1162 3.2837 4.93 3.2837 7.9212 0 2.9925-1.1662 5.8063-3.2837 7.9225-2.1138 2.1163-4.925 3.2813-7.9188 3.2813-2.9937 0-5.805-1.165-7.9225-3.2813M3.7413 3.7413C1.3288 6.1538 0 9.3613 0 12.7725c0 3.4125 1.3288 6.6213 3.7413 9.0338 2.415 2.4125 5.6187 3.7412 9.0337 3.7412 3.4113 0 6.6188-1.3287 9.03-3.7412 2.4163-2.4125 3.7425-5.6213 3.7425-9.0338 0-3.4112-1.3262-6.6187-3.7425-9.0312C19.3938 1.3275 16.1863 0 12.775 0 9.36 0 6.1563 1.3275 3.7413 3.7413" id="path8951" fill="#e22739"/></g><g id="g8953"><path d="M17.8605 4.9152l-.4287 4.4725H12.513s-.145.7813-.2137 1.2438c2.3462-.355 4.98.1425 6.1537 2.3112.8863 1.9213.4613 4.1613-.8175 5.7613-2.3837 2.7737-6.2625 2.8812-9.4625 1.7437-1.025-.3812-1.5475-.9025-1.5475-.9025s.305-2.3687.515-3.3662c1.3875.9612 3.5563 1.6712 5.1225.57.515-.3838.7813-.925.6388-1.6-.3988-1.1263-1.7763-1.495-2.985-1.495-.8975.0625-1.7775.1937-2.525.8175.2837-3.1988.8175-6.365 1.21-9.565l9.2587.0087z" id="path8955" fill="#1d2665"/></g><g id="g8957"><path d="M6.5706 29.4284c0 .9112-.0362 1.265-.1012 1.7212.5375-.3875 1.315-.6075 2.2262-.6075.8788 0 1.9075.22 2.5325.81.454.439.675.9964.675 1.974v5.536c0 .169-.1524.219-.7774.219s-.7775-.05-.7775-.219v-5.265c0-.591-.0974-.9286-.301-1.1474-.2864-.3212-.829-.4062-1.555-.4062h-.065c-.7264 0-1.2676.085-1.555.4062-.2.2188-.3014.5563-.3014 1.1475v5.265c0 .169-.1525.219-.7775.219s-.7774-.05-.7774-.219V27.8247c0-.1687.1525-.2187.7775-.2187s.7776.05.7776.2186v1.6038z" id="path8959"/></g><g id="g8961"><path d="M18.9394 33.5967c0-.6587-.1013-.9625-.305-1.1812-.2875-.3038-.825-.4725-1.5-.4725-1.57 0-2.195 1.13-2.195 2.9187 0 1.7388.505 2.92 2.2275 2.92.6424 0 1.18-.1687 1.4674-.4725.2037-.22.305-.5237.305-1.1812v-2.5313zm1.5512 2.5988c0 1.0462-.2512 1.7212-.7587 2.2112-.6214.59-1.635.7763-2.565.7763-2.4626 0-3.8476-1.5863-3.8476-4.27 0-2.8863 1.5187-4.3713 3.5962-4.3713.8763 0 1.5838.2538 2.125.625-.0687-.4562-.1012-.8275-.1012-1.7387v-1.6025c0-.17.1525-.22.7775-.22s.7736.05.7736.22v8.37z" id="path8963"/></g></g></g></svg>
