<svg xmlns:osb="http://www.openswatchbook.org/uri/2009/osb" xmlns="http://www.w3.org/2000/svg" width="4.432653mm" height="6.2459307mm" viewBox="0 0 15.706251 22.13125" id="svg2"><defs id="defs4"><linearGradient id="linearGradient4184" osb:paint="solid"><stop offset="0" id="stop4186" stop-color="#fff"/></linearGradient><clipPath id="clipPath40423"><path id="path40425" d="M150.051 118.381h28.346v28.346h-28.346v-28.346z"/></clipPath></defs><g id="layer1"><g id="g40419"><g clip-path="url(#clipPath40423)" id="g40421" transform="matrix(1.25 0 0 -1.25 -197.43 176.76)"><g id="g40435" fill="#fff"><path id="path40437" d="M163.87 123.762l-.06-.061h-.726l-.061.061v1.694l-.06.06h-1.634l-.06-.06v-1.694l-.061-.061h-.726l-.06.061v4.114l.06.06h.726l.061-.06v-1.573l.06-.06h1.634l.06.06v1.573l.061.06h.726l.06-.06v-4.114z"/></g><g id="g40439" fill="#fff"><path id="path40441" d="M167.18 124.754c.173.218.26.573.26 1.065s-.087.847-.26 1.065c-.173.218-.47.326-.889.326h-.545l-.06-.06v-2.662l.06-.061h.545c.419 0 .716.109.889.327m.626 2.644c.321-.359.481-.885.481-1.579s-.16-1.22-.481-1.579c-.32-.359-.846-.539-1.576-.539h-1.331l-.06.061v4.114l.06.06h1.331c.73 0 1.256-.179 1.576-.538"/></g><g id="g4325"><g id="g4337" fill="#0a0705"><g id="g40427" fill="#fff"><path id="path40429" d="M170.507 135.124c0-3.47-2.813-6.282-6.283-6.282-3.469 0-6.282 2.812-6.282 6.282s2.813 6.282 6.282 6.282c3.47 0 6.283-2.812 6.283-6.282"/></g><g id="g40431" fill="#000"><path id="path40433" d="M165.414 135.054c-.537-.536-1.409-.536-1.946 0-.536.536-.536 1.409 0 1.946.537.536 1.409.536 1.946 0 .536-.537.536-1.41 0-1.946m1.367 3.313c-1.29 1.29-3.39 1.29-4.68 0-1.291-1.29-1.291-3.39 0-4.68.347-.347.752-.601 1.184-.761l-1.162-1.162 1.367-1.368 3.291 3.291c1.29 1.29 1.29 3.39 0 4.68"/></g></g></g></g></g></g></svg>
