<svg xmlns="http://www.w3.org/2000/svg" width="112.53062mm" height="111.91396mm" viewBox="0 0 398.73055 396.5455" id="svg4464"><defs id="defs4466"><clipPath id="clipPath3576"><path id="path3578" d="M754.345 512.111h45.505v40.645h-45.505v-40.645z"/></clipPath><clipPath id="clipPath3584"><path id="path3586" d="M759.205 552.756h40.645v-40.645h-40.645v40.645z"/></clipPath><clipPath id="clipPath3592"><path id="path3594" d="M759.2048 552.7558h40.645v-40.645h-40.645v40.645z"/></clipPath><radialGradient id="radialGradient3596" spreadMethod="pad" gradientTransform="matrix(20.32895 0 0 -20.32895 779.103 532.518)" gradientUnits="userSpaceOnUse" r="1" cy="0" cx="0" fy="0.00336217" fx="-0.97217602"><stop id="stop3598" offset="0" stop-color="#fff"/><stop id="stop3600" offset="0.916984" stop-color="#fff"/><stop id="stop3602" offset="0.952891" stop-color="#e6e6e6"/><stop id="stop3604" offset="1" stop-color="#9c9a9b"/></radialGradient><clipPath id="clipPath3556"><path id="path3558" d="M754.345 512.111h45.505v40.645h-45.505v-40.645z"/></clipPath></defs><g id="layer1"><g id="g6100"><path id="path6102" d="M397.691 378.2397c3.4846 7.7567-1.933 18.3058-14.129 18.3058H11.7186C5.2268 396.5455 0 391.3903 0 384.97V11.623C0 5.203 5.2268 0 11.7186 0H383.562c12.4584.382 16.3964 13.1267 12.6732 19.7855l-86.5168 180.9097" fill="#f36821"/></g><g id="g6104"><path id="path6106" d="M58.8076 17.208l3.4845 3.6038c0 2.0048-1.3125 3.556-3.4844 3.556h-10.215l12.387 11.6232 1.3125 2.7208-3.4128 3.5323-3.7948-2.2672-8.8307-8.974-11.3844 10.931-3.5562 1.981c-2.2672 0-3.222-1.7662-3.222-3.6994l2.148-3.58L43.4853 24.368h-11.981l-3.413-3.5562 3.413-3.604" fill="#fff"/></g><g id="g6108"><path id="path6110" d="M49.977 46.039c2.2672 0 3.7947 1.3603 3.7947 3.365 0 2.0288-1.5275 3.437-3.7948 3.437H37.8764c-2.864 0-4.4392 2.0763-4.4392 4.4153 0 2.2434 1.5752 4.3676 4.4392 4.3676H49.977c2.2672 0 3.7947 1.432 3.7947 3.4367 0 1.981-1.5275 3.389-3.7948 3.389H37.7093c-6.062 0-9.9285-3.9618-9.9285-11.1934 0-7.2317 3.8663-11.2174 9.9284-11.2174" fill="#fff"/></g><g id="g6112"><path id="path6114" d="M49.977 72.364c2.2672 0 3.7947 1.4558 3.7947 3.4128l-2.506 3.1266c1.8616 1.3365 2.7686 3.389 2.7686 6.611 0 5.3462-3.413 9.308-9.165 9.308H31.8622c-2.339 0-3.7947-1.408-3.7947-3.389 0-2.0287 1.4558-3.4368 3.7948-3.4368H43.724c3.1027 0 4.654-1.957 4.654-4.4392 0-2.8163-2.0525-4.3438-4.654-4.3438H31.862c-2.339 0-3.7947-1.408-3.7947-3.4368 0-1.957 1.4558-3.413 3.7948-3.413" fill="#fff"/></g><g id="g6116"><path id="path6118" d="M46.0628 113.1044c0-1.2888 2.0286-3.9142 2.0286-6.1576l-1.8854-2.2912c-3.1982 0-2.697 11.79-10.4537 11.79-4.5346 0-7.9953-3.7708-7.9953-9.6898 0-3.8425 2.148-9.5467 5.2984-9.5467l3.0072 2.9835c0 2.6253-2.3867 3.8187-2.3867 7.0884l2.0047 2.649c3.055 0 2.673-11.79 10.382-11.79 4.7257 0 7.9716 3.7948 7.9716 9.1886 0 3.389-1.5514 8.5443-4.8927 8.5443l-3.0788-2.7686" fill="#fff"/></g><g id="g6120"><path id="path6122" d="M60.9795 118.928c2.2434 0 3.747 1.408 3.747 3.4128 0 1.981-1.5036 3.389-3.747 3.389H45.0842l7.2316 7.4942 1.456 3.1027-3.1028 2.84-2.6492-1.2887-5.4177-6.0382-9.3557 8.0192-2.2434.8114-3.222-3.222 2.0524-3.2458 10.2866-8.3773v-.0954h-8.258c-2.315 0-3.771-1.4083-3.771-3.3892 0-2.0048 1.456-3.413 3.771-3.413" fill="#fff"/></g><g id="g6124"><path id="path6126" d="M33.9862 153.845c0 3.6037 3.58 5.2505 6.8975 5.2505 3.246 0 6.9213-1.6468 6.9213-5.2506 0-3.6756-3.6754-5.394-6.9213-5.394-3.3175 0-6.8975 1.7184-6.8975 5.394m-1.456 12.1003c-1.79 0-4.463 0-4.463-3.2698l2.864-3.2458c-2.0525-1.79-3.1503-3.8903-3.1503-6.5156 0-6.42 5.4176-11.289 13.1027-11.289 7.4225 0 13.1506 5.0598 13.1506 11.289 0 2.506-.9308 4.9405-3.1027 6.5157l2.84 3.2458c0 3.2698-2.7207 3.2698-4.439 3.2698" fill="#fff"/></g><g id="g6128"><path id="path6130" d="M33.9862 182.0315c0 3.58 3.7232 5.2745 6.8975 5.2745 3.222 0 6.9213-1.6945 6.9213-5.2745 0-3.6516-3.389-5.394-6.7304-5.394-3.2936 0-7.0884 1.623-7.0884 5.394m15.9907-12.196c2.2672 0 3.7947 1.4082 3.7947 3.437l-2.84 3.365c2.1002 1.3128 3.1026 3.962 3.1026 6.5396 0 7.375-6.826 11.0026-13.4847 11.0026-6.3963 0-12.7687-4.3915-12.7687-11.2173 0-2.172.7875-4.463 2.3388-6.3247h-8.3056c-2.2674 0-3.747-1.432-3.747-3.3652 0-2.0287 1.4796-3.4368 3.747-3.4368" fill="#fff"/></g><g id="g6132"><path id="path6134" d="M46.0628 211.4114c0-1.2888 2.0286-3.9142 2.0286-6.11l-1.8854-2.291c-3.1982 0-2.697 11.8378-10.4537 11.8378-4.5346 0-7.9953-3.8187-7.9953-9.7376 0-3.8426 2.148-9.523 5.2984-9.523l3.0072 2.9596c0 2.6254-2.3867 3.7948-2.3867 7.0646l2.0047 2.673c3.055 0 2.673-11.8617 10.382-11.8617 4.7257 0 7.9716 3.8665 7.9716 9.2604 0 3.3413-1.5514 8.4965-4.8927 8.4965l-3.0788-2.7686" fill="#fff"/></g><g id="g6136"><path id="path6138" d="M60.9795 217.235c2.2434 0 3.747 1.5035 3.747 3.389 0 2.0525-1.5036 3.4845-3.747 3.4845H45.0842l7.2316 7.4464 1.456 3.0787-3.1028 2.9117-2.6492-1.2888-5.4177-6.1098-9.3557 7.9953-2.2434.8832-3.222-3.222 2.0524-3.246 10.2866-8.401v-.0477h-8.258c-2.315 0-3.771-1.432-3.771-3.4846 0-1.8855 1.456-3.389 3.771-3.389" fill="#fff"/></g><g id="g6140"><path id="path6142" d="M33.9862 252.1757c0 3.5084 3.58 5.2746 6.8975 5.2746 3.246 0 6.9213-1.7184 6.9213-5.2746 0-3.747-3.6754-5.4177-6.9213-5.4177-3.3175 0-6.8975 1.6945-6.8975 5.4177m-1.456 12.0766c-1.79 0-4.463 0-4.463-3.246l2.864-3.2935c-2.0525-1.7423-3.1503-3.8425-3.1503-6.444 0-6.42 5.4176-11.3128 13.1027-11.3128 7.4225 0 13.1506 5.012 13.1506 11.3128 0 2.482-.9308 4.9643-3.1027 6.444l2.84 3.2936c0 3.246-2.7207 3.246-4.439 3.246" fill="#fff"/></g><g id="g6144"><path id="path6146" d="M49.977 268.1426c2.2672 0 3.7947 1.4558 3.7947 3.4368l-2.506 3.1265c1.8616 1.3126 2.7686 3.389 2.7686 6.611 0 5.346-3.413 9.332-9.165 9.332H31.8622c-2.339 0-3.7947-1.4083-3.7947-3.413 0-2.0287 1.4558-3.437 3.7948-3.437H43.724c3.1027 0 4.654-1.9808 4.654-4.439 0-2.8402-2.0525-4.3438-4.654-4.3438H31.862c-2.339 0-3.7947-1.432-3.7947-3.4368 0-1.981 1.4558-3.4368 3.7948-3.4368" fill="#fff"/></g><g id="g6148"><path id="path6150" d="M33.9862 305.7327c0 3.58 3.58 5.2745 6.8975 5.2745 3.246 0 6.9213-1.6707 6.9213-5.2745 0-3.7233-3.6754-5.394-6.9213-5.394-3.3175 0-6.8975 1.7662-6.8975 5.394m-1.456 12.0765c-1.79 0-4.463 0-4.463-3.198l2.864-3.3176c-2.0525-1.766-3.1503-3.8664-3.1503-6.4918 0-6.3724 5.4176-11.2412 13.1027-11.2412 7.4225 0 13.1506 5.012 13.1506 11.2412 0 2.506-.9308 4.9643-3.1027 6.4918l2.84 3.3175c0 3.1982-2.7207 3.1982-4.439 3.1982" fill="#fff"/></g><g id="g6152"><path id="path6154" d="M60.9795 321.628c2.2434 0 3.747 1.432 3.747 3.4128 0 2.0287-1.5036 3.413-3.747 3.413H31.862c-2.315 0-3.771-1.3843-3.771-3.413 0-1.981 1.456-3.413 3.771-3.413" fill="#fff"/></g><g id="g6156"><path id="path6158" d="M43.151 348.454c2.9834-.358 5.2507-2.2434 5.2507-5.4415 0-3.0072-2.339-5.0837-5.2507-5.4655v10.907zm-4.5108-10.716c-3.3413.4772-4.9643 3.2935-4.9643 6.4917 0 3.5084 2.7685 5.919 2.7685 7.7328l-2.9595 2.7685c-2.888 0-5.728-6.062-5.728-11.098 0-7.709 5.561-12.8642 13.1267-12.8642 6.8736 0 13.1506 5.0598 13.1506 12.2437 0 7.3748-6.7305 12.3152-12.339 12.3152l-3.055-3.031" fill="#fff"/></g><g id="g6160"><path id="path6162" d="M49.977 357.7144c2.2672 0 3.7947 1.432 3.7947 3.413l-2.506 3.1742c1.8616 1.2888 2.7686 3.3174 2.7686 6.5633 0 5.2983-3.413 9.308-9.165 9.308H31.8622c-2.339 0-3.7947-1.3843-3.7947-3.389 0-2.005 1.4558-3.3892 3.7948-3.3892H43.724c3.1027 0 4.654-2.0287 4.654-4.5108 0-2.7924-2.0525-4.32-4.654-4.32H31.862c-2.339 0-3.7947-1.4558-3.7947-3.4367 0-1.981 1.4558-3.413 3.7948-3.413" fill="#fff"/></g></g></svg>
