<svg id="Lager_1" data-name="Lager 1" xmlns="http://www.w3.org/2000/svg" viewBox="0 0 234.54 26.87"><defs><style>.cls-1{fill:#fff;}</style></defs><title>asd</title><path class="cls-1" d="M7.02 14.81c-3.57-1-6.4-3.31-6.4-7.13C.62 3.6 3.85 0 8.89 0c4.3 0 6.58 2.5 7.31 4.3a2.37 2.37 0 0 1 .22.84c0 .51-.37.81-.92 1l-1 .33a1 1 0 0 1-1.43-.55 4.36 4.36 0 0 0-4.12-2.39c-2.72 0-4.63 1.76-4.63 3.93a4 4 0 0 0 3.33 3.71l2.72.7c4.26 1.1 6.76 3.71 6.76 7.2 0 3.9-3.05 7.79-8.67 7.79-5.44 0-7.72-3.68-8.31-5.73-.33-1.1-.11-1.51.81-1.8l1-.29c1.07-.33 1.36.29 1.65 1a5 5 0 0 0 5 3.35c3.16 0 4.93-1.91 4.93-4.08 0-1.62-1-3-3.82-3.75zM25.44 26.47a1.26 1.26 0 0 1-1.4-1.4V1.8a1.26 1.26 0 0 1 1.4-1.4h12.68a1.26 1.26 0 0 1 1.4 1.4v.66a1.26 1.26 0 0 1-1.4 1.4H27.65v8.23h9a1.26 1.26 0 0 1 1.4 1.4v.66a1.26 1.26 0 0 1-1.4 1.42h-9v9.52a1.26 1.26 0 0 1-1.4 1.4zM45.4 17.42c-.88 0-1.4-.44-1.4-1.25v-.51c0-.81.51-1.25 1.4-1.25h7.17c.88 0 1.4.44 1.4 1.25v.51c0 .81-.51 1.25-1.4 1.25zM76.72 26.47c-.66 0-1-.33-1.62-1.1l-8.6-10.66-2.57 2.72v7.65a1.26 1.26 0 0 1-1.4 1.4h-.81a1.26 1.26 0 0 1-1.4-1.4V1.8a1.26 1.26 0 0 1 1.4-1.4h.81a1.26 1.26 0 0 1 1.4 1.4v10.77L74.37 1.51c.7-.74 1.14-1.1 1.8-1.1h1.43a1 1 0 0 1 1.1 1.1 1 1 0 0 1-.29.74L69 12.1l9.89 12.53a1.19 1.19 0 0 1 .29.77 1.05 1.05 0 0 1-1.1 1.07zM103.92 26.47c-.85 0-1.07-.51-1.47-1.51l-2.17-5.4H89.15l-2.17 5.4c-.4 1-.62 1.51-1.47 1.51h-1.47a.92.92 0 0 1-1-.88 5.05 5.05 0 0 1 .48-1.47l9-22.31A1.9 1.9 0 0 1 94.4.41h.7a1.9 1.9 0 0 1 1.87 1.4l8.93 22.31a5.05 5.05 0 0 1 .48 1.47.92.92 0 0 1-1 .88zM94.73 5.66l-4.26 10.55h8.49zM131.02 26.47a1.91 1.91 0 0 1-1.91-1L115.5 6.57v18.5a1.26 1.26 0 0 1-1.4 1.4h-.81a1.26 1.26 0 0 1-1.4-1.4V1.8a1.26 1.26 0 0 1 1.4-1.4h.92a1.91 1.91 0 0 1 1.91 1l13.6 18.89V1.8a1.26 1.26 0 0 1 1.4-1.4h.81a1.26 1.26 0 0 1 1.4 1.4v23.27a1.26 1.26 0 0 1-1.4 1.4zM159.73 26.47c-.85 0-1.07-.51-1.47-1.51l-2.17-5.4h-11.14l-2.17 5.4c-.4 1-.62 1.51-1.47 1.51h-1.47a.92.92 0 0 1-1-.88 5.07 5.07 0 0 1 .48-1.47l9-22.31a1.9 1.9 0 0 1 1.88-1.4h.7a1.9 1.9 0 0 1 1.87 1.4l8.93 22.31a5.05 5.05 0 0 1 .48 1.47.92.92 0 0 1-1 .88zm-9.19-20.81l-4.26 10.55h8.49zM169.47 26.47a1.26 1.26 0 0 1-1.4-1.4V1.8a1.26 1.26 0 0 1 1.4-1.4h.81a1.26 1.26 0 0 1 1.4 1.4v21.21h11.1a1.26 1.26 0 0 1 1.4 1.4v.66a1.26 1.26 0 0 1-1.4 1.4zM191.65 26.47a1.26 1.26 0 0 1-1.4-1.4V1.8a1.26 1.26 0 0 1 1.4-1.4h12.87a1.26 1.26 0 0 1 1.4 1.4v.66a1.26 1.26 0 0 1-1.4 1.4h-10.71v7.87h9a1.26 1.26 0 0 1 1.4 1.4v.66a1.26 1.26 0 0 1-1.4 1.4h-9v7.83h10.84a1.26 1.26 0 0 1 1.4 1.4v.66a1.26 1.26 0 0 1-1.4 1.4zM232.23 26.47a1.91 1.91 0 0 1-1.91-1l-13.61-18.9v18.5a1.26 1.26 0 0 1-1.4 1.4h-.81a1.26 1.26 0 0 1-1.4-1.4V1.8a1.26 1.26 0 0 1 1.4-1.4h.92a1.91 1.91 0 0 1 1.91 1l13.6 18.89V1.8a1.26 1.26 0 0 1 1.4-1.4h.81a1.26 1.26 0 0 1 1.4 1.4v23.27a1.26 1.26 0 0 1-1.4 1.4z"/></svg>
