<svg xmlns="http://www.w3.org/2000/svg" width="401.51251" height="896.40625" viewBox="0 0 321.21001 717.125" id="svg2"><g id="g4" fill="#fff"><path d="M320.967 446.924v62.828H0v-62.828h320.967z" id="path6"/></g><g id="g8" fill="#fff"><path d="M252.3752 184.599c44.628 11.707 66.375 43.51 66.375 89.239 0 88.104-80.317 124.928-157.282 124.928-90.9077 0-164.52-46.296-158.932-146.125H91.208c-1.1172 46.297 21.7472 69.16 69.7102 69.16 32.336 0 63.023-13.942 63.023-47.963 0-42.943-31.236-52.983-69.143-52.983-8.372 0-16.744.55-25.099 1.117v-65.807c8.355-.568 16.727 1.117 25.099.567 27.867 0 63.005-7.254 63.005-40.726 0-25.0997-25.098-39.0412-55.767-39.0412-38.492 0-60.788 20.079-60.238 55.2182H13.126C15.3604 45.1787 78.3838 0 161.4682 0c67.475 0 145.007 28.452 145.007 107.634 0 34.021-18.393 69.727-54.1 75.847v1.118z" id="path10"/></g><g id="g12" fill="#fff"><path d="M103.2858 717.125v-71.299h-61.114v71.299H.007V549.89h42.4014v60.403h60.8776V549.89h41.927v167.235h-41.927z" id="path14"/></g><g id="g16" fill="#fff"><path d="M269.808 598.923c-2.369-2.841-7.343-8.527-16.345-11.37-7.816-2.605-14.922-2.368-22.976-2.368h-16.819v98.304h12.791c12.318 0 26.531-.711 37.427-8.765 8.528-6.395 15.398-18.476 15.398-41.217 0-12.791-1.422-24.397-9.476-34.584zm32.216 93.804c-5.448 6.159-17.767 17.056-38.138 21.794-9.238 2.131-17.292 2.604-26.767 2.604h-65.615V549.89h53.297c5.212 0 10.186 0 15.16.236 7.107.475 35.058 1.185 55.43 18.003 3.079 2.37 8.054 6.87 13.265 15.161 5.922 9.238 12.554 24.162 12.554 48.796 0 31.505-10.185 50.218-19.186 60.641z" id="path18"/></g></svg>
