<svg xmlns="http://www.w3.org/2000/svg" width="32.051876" height="9.88375" viewBox="0 0 25.641501 7.907" id="svg2"><defs id="defs22"><clipPath id="clipPath4638"><path id="path4640" d="M89.935 304.458h25.642v7.907H89.935v-7.907z"/></clipPath></defs><g id="g4257" fill="#fff"><g id="g4630"><path d="M8.8593 1.73l-1.571 4.214-1.572-4.214h-1.374l2.258 6.056h1.374l2.258-6.056h-1.373z" id="path4632"/></g><g transform="matrix(1 0 0 -1 -89.936 312.365)" clip-path="url(#clipPath4638)" id="g4636"><g id="g4642"><path id="path4644" d="M90.9385 306.371l-1.003-.728c.39-.577 1.172-1.185 2.222-1.185 1.181 0 2.104.724 2.104 1.85 0 .736-.429 1.297-1.31 1.701-.122.056-.622.279-.718.319-.464.196-.69.416-.69.68 0 .273.214.538.65.538.305 0 .585-.144.853-.439l.954.692c-.381.585-1.088.948-1.846.948-1.004 0-1.885-.647-1.885-1.734 0-.756.429-1.341 1.308-1.717.257-.11.437-.186.64-.273.29-.124.759-.319.759-.734 0-.414-.41-.628-.854-.628-.399 0-.821.253-1.184.71"/></g><path d="M102.726 305.686c-.293 0-.539.177-.67.428-.099.191-.103.494-.103.751v2.516h1.4l.468 1.254h-1.868v1.73h-1.282v-5.695c.001-.264.015-.506.115-.823.279-.808 1.035-1.389 1.94-1.389.517 0 1.048.199 1.438.564l-.803.918c-.17-.148-.404-.254-.635-.254" id="path4648"/><g id="g4650"><path id="path4652" d="M105.513 310.635l-.467-1.252h1.208v-4.805h1.251v6.057h-1.992z"/></g><g id="g4654"><path id="path4656" d="M112.279 310.635v-3.163h-.398v1.446h-1.59v-1.446h-.398v3.163h.398v-1.401h1.59v1.401h.398z"/></g><g id="g4658"><path id="path4660" d="M115.18 309.365c0 .502-.253.953-.962.953h-.746v-2.53h.746c.709 0 .962.452.962.953v.624zm.398-.018v-.587c0-.714-.475-1.288-1.306-1.288h-1.198v3.163h1.198c.831 0 1.306-.574 1.306-1.288"/></g></g></g></svg>
