<svg xmlns="http://www.w3.org/2000/svg" width="24.802" height="11.16125" viewBox="0 0 19.8416 8.9290001" id="svg2"><defs id="defs22"><clipPath id="clipPath4590"><path id="path4592" d="M61.573 303.947h19.842v8.929H61.573v-8.929z"/></clipPath></defs><g id="g4582" fill="#fff"><path id="path4584" d="M10.004 1.953L8.23 6.712 6.455 1.953H4.903l2.551 6.84h1.551l2.551-6.84h-1.552z"/></g><g id="g4586" fill="#fff"><g clip-path="url(#clipPath4590)" id="g4588" transform="matrix(1 0 0 -1 -61.573 312.876)"><g id="g4594"><path id="path4596" d="M62.7056 306.107l-1.133-.822c.44-.652 1.324-1.338 2.51-1.338 1.333 0 2.376.817 2.376 2.089 0 .831-.484 1.465-1.48 1.921-.137.063-.702.314-.811.36-.524.221-.778.47-.778.768 0 .309.24.607.733.607.345 0 .661-.162.964-.495l1.077.781c-.43.661-1.229 1.071-2.085 1.071-1.133 0-2.129-.731-2.129-1.958 0-.854.485-1.515 1.477-1.939.291-.124.494-.211.724-.309.327-.139.856-.36.856-.828 0-.468-.463-.71-.963-.71-.452 0-.928.286-1.338.802"/></g><g id="g4598"><path id="path4600" d="M76.0172 305.334c-.331 0-.609.2-.757.483-.112.216-.116.558-.116.849v2.84h1.582l.528 1.417h-2.11v1.953h-1.448v-6.431c.002-.298.017-.571.13-.929.315-.913 1.169-1.569 2.191-1.569.584 0 1.183.225 1.624.637l-.907 1.037c-.192-.168-.456-.287-.717-.287"/></g><g id="g4602"><path id="path4604" d="M79.1646 310.923l-.527-1.414h1.363v-5.425h1.414v6.839h-2.25z"/></g></g></g></svg>
