<svg xmlns="http://www.w3.org/2000/svg" width="23.61875" height="7.7962499" viewBox="0 0 18.895 6.2369999" id="svg2"><defs id="defs22"><clipPath id="clipPath4638"><path id="path4640" d="M89.935 304.458h25.642v7.907H89.935v-7.907z"/></clipPath><clipPath id="clipPath4670"><path id="path4672" d="M152.379 304.84h25.642v7.525h-25.642v-7.525z"/></clipPath><clipPath id="clipPath4730"><path id="path4732" d="M184.055 306.243h24.654v6.237h-24.654v-6.237z"/></clipPath></defs><g id="g4363"><g id="g4391" fill="#fff"><g id="g4722"><path id="path4724" d="M6.987 1.364L5.748 4.688l-1.24-3.324H3.424l1.782 4.777H6.29l1.781-4.777H6.987z"/></g><g id="g4726"><g clip-path="url(#clipPath4730)" id="g4728" transform="matrix(1 0 0 -1 -184.055 312.48)"><g id="g4381"><g id="g4734"><path d="M184.846 307.752l-.791-.574c.307-.456.924-.935 1.753-.935.931 0 1.659.571 1.659 1.459 0 .581-.338 1.023-1.033 1.342-.096.044-.491.22-.567.252-.366.154-.543.328-.543.536 0 .216.168.424.512.424.241 0 .461-.113.673-.346l.752.546c-.3.461-.858.748-1.456.748-.791 0-1.487-.51-1.487-1.368 0-.596.339-1.058 1.032-1.354.203-.087.345-.147.505-.216.229-.097.598-.251.598-.578 0-.327-.323-.496-.673-.496-.315 0-.647.2-.934.56" id="path4736"/></g><g id="g4738"><path d="M194.143 307.212c-.231 0-.425.14-.528.338-.079.15-.082.389-.082.592v1.984h1.105l.369.99h-1.474v1.364h-1.011v-4.492c.001-.208.012-.399.091-.649.22-.637.816-1.096 1.53-1.096.408 0 .827.157 1.134.445l-.633.724c-.134-.117-.319-.2-.501-.2" id="path4740"/></g><g id="g4742"><path d="M198.953 308.652c.234.304.368.662.368 1.024 0 .419-.17.806-.478 1.091-.296.273-.689.424-1.105.424-.438 0-.818-.144-1.1-.416-.271-.261-.44-.628-.488-1.063l-.01-.085h.983l.003.046c.021.329.29.586.612.586.334 0 .628-.283.628-.606 0-.207-.173-.426-.334-.635l-2.025-2.679h3.368V307.3h-1.467l1.045 1.352z" id="path4744"/></g><g id="g4746"><path d="M201.954 309.196v-.942h-.966l1.071 2.864h-1.07l-1.411-3.776h2.376v-1.003h.996v2.857h-.996z" id="path4748"/></g></g></g></g></g></g></svg>
