<svg xmlns="http://www.w3.org/2000/svg" width="32.052502" height="9.40625" viewBox="0 0 25.642001 7.525" id="svg2"><defs id="defs22"><clipPath id="clipPath4638"><path id="path4640" d="M89.935 304.458h25.642v7.907H89.935v-7.907z"/></clipPath><clipPath id="clipPath4670"><path id="path4672" d="M152.379 304.84h25.642v7.525h-25.642v-7.525z"/></clipPath></defs><g id="g4307" fill="#fff"><g id="g4662"><path d="M8.431 1.646l-1.496 4.01-1.495-4.01H4.133L6.282 7.41h1.307l2.15-5.764H8.431z" id="path4664"/></g><g id="g4666"><g id="g4668" clip-path="url(#clipPath4670)" transform="matrix(1 0 0 -1 -152.38 312.365)"><g id="g4674"><path d="M153.334 306.66l-.955-.693c.371-.549 1.116-1.128 2.115-1.128 1.124 0 2.002.689 2.002 1.761 0 .7-.407 1.234-1.246 1.619-.116.053-.592.265-.684.304-.441.186-.656.395-.656.646 0 .261.203.512.618.512.291 0 .557-.136.812-.417l.908.659c-.362.556-1.035.902-1.757.902-.955 0-1.794-.616-1.794-1.65 0-.72.409-1.277 1.245-1.635.245-.104.416-.177.609-.259.276-.118.722-.304.722-.699 0-.394-.39-.598-.812-.598-.38 0-.781.241-1.127.676" id="path4676"/></g><g id="g4678"><path d="M164.552 306.009c-.279 0-.513.168-.638.407-.094.182-.098.47-.098.715v2.394h1.333l.445 1.194h-1.778v1.646h-1.22v-5.42c.001-.251.015-.481.11-.782.265-.77.985-1.323 1.846-1.323.492 0 .997.189 1.368.537l-.764.874c-.161-.141-.384-.242-.604-.242" id="path4680"/></g><g id="g4682"><path d="M169.094 306.114l1.261 1.631c.282.367.444.799.444 1.236 0 .506-.204.973-.576 1.316-.358.33-.832.512-1.334.512-.528 0-.986-.174-1.327-.502-.327-.314-.53-.758-.589-1.283l-.012-.103h1.186l.003.056c.027.397.351.707.739.707.404 0 .758-.341.758-.731 0-.25-.208-.514-.403-.766l-2.443-3.232h4.063v1.159h-1.77z" id="path4684"/></g><g id="g4686"><path d="M174.882 310.719v-3.01h-.378v1.376h-1.514v-1.376h-.379v3.01h.379v-1.333h1.514v1.333h.378z" id="path4688"/></g><g id="g4690"><path d="M177.643 309.51c0 .477-.241.907-.916.907h-.709v-2.408h.709c.675 0 .916.43.916.908v.593zm.378-.017v-.559c0-.68-.451-1.226-1.242-1.226h-1.14v3.01h1.14c.791 0 1.242-.546 1.242-1.225" id="path4692"/></g></g></g></g></svg>
