<svg xmlns="http://www.w3.org/2000/svg" width="27.418751" height="11.16125" viewBox="0 0 21.935001 8.9290001" id="svg2"><defs id="defs22"><clipPath id="clipPath4590"><path id="path4592" d="M61.573 303.947h19.842v8.929H61.573v-8.929z"/></clipPath><clipPath id="clipPath4614"><path id="path4616" d="M123.052 304.854h21.935v8.929h-21.935v-8.929z"/></clipPath></defs><g id="g4606" fill="#fff"><path id="path4608" d="M10.004 1.953L8.229 6.712 6.454 1.953H4.903l2.55 6.84h1.552l2.551-6.84h-1.552z"/></g><g id="g4618" fill="#fff"><path id="path4620" d="M1.132 6.769l-1.133.822c.44.652 1.324 1.338 2.51 1.338 1.333 0 2.376-.817 2.376-2.089 0-.831-.484-1.465-1.48-1.921-.137-.063-.702-.314-.811-.36-.524-.221-.778-.47-.778-.768 0-.309.24-.607.733-.607.345 0 .661.162.964.495l1.077-.781c-.43-.661-1.229-1.071-2.085-1.071-1.133 0-2.129.731-2.129 1.958 0 .854.485 1.515 1.477 1.939.291.124.494.211.723.309.328.139.857.36.857.828 0 .468-.463.71-.963.71-.452 0-.928-.286-1.338-.802"/></g><g id="g4622" fill="#fff"><path id="path4624" d="M14.444 7.542c-.331 0-.609-.2-.757-.483-.112-.216-.116-.558-.116-.849V3.37h1.582l.528-1.417h-2.11V0h-1.448v6.431c.002.298.017.571.13.929.315.913 1.169 1.569 2.191 1.569.584 0 1.183-.225 1.624-.637l-.907-1.037c-.192.168-.456.287-.717.287"/></g><g id="g4626" fill="#fff"><path id="path4628" d="M19.834 7.417l1.497-1.936c.334-.435.526-.947.526-1.466 0-.6-.242-1.155-.683-1.561-.425-.392-.987-.608-1.584-.608-.625 0-1.17.206-1.573.595-.388.374-.63.9-.7 1.523l-.013.122h1.406l.004-.067c.031-.47.416-.838.876-.838.48 0 .9.405.9.867 0 .297-.247.611-.479.909l-2.898 3.835h4.822V7.417h-2.101z"/></g></svg>
