<svg xmlns="http://www.w3.org/2000/svg" id="svg2" viewBox="0 0 316.99123 245.10083" height="245.10083pt" width="316.99124pt"><defs id="defs30"><linearGradient id="linearGradient2783"><stop id="stop2785" offset="0" stop-color="#f52837"/><stop offset="0.32205042" id="stop2791" stop-color="#f52837" stop-opacity="0.85490196"/><stop id="stop2793" offset="0.49630666" stop-color="#f52837" stop-opacity="0.61568627"/><stop offset="0.68153626" id="stop2797" stop-color="#f52837" stop-opacity="0.24313725"/><stop offset="0.85579252" id="stop2795" stop-color="#f52837" stop-opacity="0"/><stop id="stop2787" offset="1" stop-color="#f52837" stop-opacity="0"/></linearGradient><clipPath id="clipPath3814"><path d="M123.052 304.854h21.935v8.929h-21.935v-8.929z" id="path3816"/></clipPath><clipPath id="clipPath3930"><path d="M184.055 306.243h24.654v6.237h-24.654v-6.237z" id="path3932"/></clipPath></defs><g id="g4300"><g id="g3414" fill="#f42836"><g id="g4380"><path id="path6" d="M37.757 37.3034c-.1216-1.7025 1.5575-3.1852 3.2273-2.9888 8.9055.028 17.8064-.0187 26.7073.0187 5.622.2386 11.4967.9355 16.4078 3.8915 3.0496 1.8475 5.3976 4.93 6.0057 8.4846.898 4.462.2526 9.827-3.4518 12.9-2.1843 1.9597-5.0655 2.722-7.7268 3.7792 4.041.7483 8.302 2.1515 10.9448 5.5004 2.769 3.405 3.0963 8.115 2.4322 12.292-.7858 4.331-3.8447 7.956-7.6614 10.0093-6.0103 3.3115-13.0356 3.8774-19.7662 4.0224-7.956-.014-15.912.028-23.868-.0187-1.6933.0748-3.4145-1.3564-3.2555-3.1244-.0093-18.2554-.0234-36.5108.0047-54.7662M61.3538 48.295c-.0233 3.2086-.0094 6.4172-.0046 9.6258 2.0113.0094 4.4154.318 5.945-1.305 1.431-1.7118 1.431-4.3405.477-6.2722-1.319-2.2076-4.1862-2.0252-6.4173-2.0486m.0467 22.3012c-.1263 3.6577-.0374 7.3153-.0468 10.973 2.2824.005 5.0935.173 6.6604-1.8383 1.3844-2.1048 1.375-5.117.0748-7.264-1.5482-2.0485-4.4107-1.782-6.6885-1.8708z"/><path id="path8" d="M109.4783 36.6486c.3555-1.3705 1.6418-2.4462 3.0917-2.3387 7.6333-.0047 15.276-.0095 22.914-.0095 1.4032-.103 2.6847.9308 3.0823 2.245 5.884 18.1152 11.8148 36.2163 17.6848 54.336.856 2.0112-.7576 4.4575-2.9653 4.3218-5.9402.0328-11.8803.0187-17.8204.005-1.4172.0702-2.886-.7858-3.2367-2.2123-.7203-2.5024-1.3096-5.042-1.955-7.5632-5.538-.0233-11.0852-.131-16.623.0515-.5895 2.507-1.2022 5.014-1.913 7.493-.3463 1.4827-1.9038 2.32-3.3444 2.2358-4.3733.005-8.7465.0234-13.115-.005-2.0628.117-3.8495-2.0626-3.115-4.0505 5.795-18.162 11.5434-36.3424 17.315-54.509m12.6334 16.6465c-1.4452 5.3742-2.7783 10.781-4.2843 16.1366 2.8017.159 5.6127.0187 8.4144.0888-1.3003-5.4256-2.596-10.8606-4.13-16.2254z"/><path id="path10" d="M159.4737 37.2894c-.0935-1.684 1.478-3.1338 3.143-2.9935 8.2696-.0047 16.539.0045 24.813-.0047 5.4538-.0795 11.0338.3742 16.1694 2.334 4.5605 1.693 8.48 5.3227 9.972 10.0187 1.5857 5.0842 1.7307 10.781-.2946 15.767-1.1974 3.0403-3.4004 5.5006-5.753 7.6942.1777 1.0617.8044 1.9785 1.258 2.942 2.975 5.7484 5.9122 11.5248 8.8542 17.2966.7577 1.319.6174 3.204-.6548 4.1627-.9167.8186-2.2123.711-3.349.7344-5.4723-.0422-10.94.014-16.4125-.0282-1.291.0374-2.535-.7344-3.0215-1.9364-2.7502-5.6642-5.3976-11.3752-8.218-17.002-.7998.005-1.595.009-2.3854.009-.0842 5.2714.005 10.5473-.042 15.8186.1216 1.74-1.4967 3.162-3.1758 3.1104-5.7625.0374-11.5295 0-17.292.014-1.4967.0984-3.129-.7108-3.5266-2.2403-.173-1.2254-.0842-2.4695-.0935-3.7043.014-17.3293-.009-34.6586.009-51.9926m23.3723 12.2546c.042 4.027.0328 8.0542.005 12.0814 2.044-.0187 4.2798.346 6.1273-.753 1.5483-.8654 2.1984-2.7035 2.2826-4.3874.1356-2.016-.1965-4.3264-1.7774-5.7437-1.8522-1.5248-4.406-1.235-6.637-1.1974z"/><path id="path12" d="M221.7844 37.322c-.1216-1.6557 1.403-3.129 3.045-3.0308 6.23-.0187 12.4648 0 18.6996-.0094 1.3284-.1216 2.465.8045 2.998 1.9645 4.3828 8.1525 8.7373 16.3143 13.134 24.462.009-7.7875-.0282-15.5705.014-23.3535-.0328-1.623 1.3985-3.19 3.0636-3.0683 4.3593-.0234 8.7185.0046 13.0777-.014 1.361-.1076 2.7502.7717 3.115 2.1047.3555 1.5435.1685 3.1385.2012 4.7054.009 16.6838-.009 33.3677.014 50.0562-.009 1.146-.1168 2.451-1.0616 3.2366-.8187.8934-2.0956.856-3.1994.8653-5.1544-.0233-10.304 0-15.4537-.005-1.1694.0374-2.479-.3507-3.0824-1.4312-5.1263-9.2563-9.9393-18.6997-15.1778-27.8953-.187 8.7278-.009 17.465-.0842 26.1928.145 1.7352-1.464 3.1525-3.1338 3.1104-3.9055.056-7.8157-.014-11.7212.0328-1.249 0-2.6988.0328-3.6156-.9682-1.1272-1.0618-.809-2.7082-.8466-4.088.0233-17.624-.005-35.2432.014-52.8672z"/><path id="path14" d="M187.5374 104.1837c-.0842-1.043.6267-2.203 1.7726-2.1468 3.564-.061 7.1376-.0796 10.7017.009 1.2956.0888 1.6464 1.5668 1.5762 2.6378-.014 7.755.005 15.51-.009 23.26 3.391.014 6.7866-.0232 10.1823.005.8887-.0982 1.8335.6035 1.8335 1.5343.0796 2.0347.0748 4.074 0 6.1086-.042.9074-.9495 1.6277-1.8428 1.5014-7.4883.0187-14.9767.005-22.465-.005-1.3143.1263-1.8756-1.3564-1.7633-2.4368.0187-10.1544-.009-20.3134.014-30.4678z"/><g id="g4316"><path d="M215.9378 104.1884c-.089-1.0758.6688-2.245 1.8428-2.1656 7.4977-.07 15 0 22.4977-.0327.9495-.07 2.1796.2106 2.4135 1.2957.131 2.03.056 4.0692.0468 6.1038.131 1.104-.9448 1.9645-1.988 1.871-3.5827.0374-7.17.0046-10.753 0-.0046 1.3236.0094 2.652.0515 3.9756 2.306-.028 4.6072-.084 6.913-.014.8607-.0654 1.478.8093 1.5296 1.595.1076 1.7306.0655 3.466.0327 5.1965.0515 1.0477-.912 1.9364-1.9457 1.8662-2.1936.0796-4.3873-.0046-6.581.0094.0094 1.436.0094 2.8673.014 4.3032 3.728.0047 7.4557-.0187 11.1835 0 1.029-.1403 2.016.739 1.974 1.7867.1028 1.693.0747 3.3956.0326 5.0935.056 1.0944-.8092 2.2684-1.9972 2.0346-7.811.0048-15.622 0-23.4285-.014-1.3378.1918-1.9552-1.3143-1.8523-2.418.0094-10.1638-.028-20.3275.014-30.4866z" id="path16"/><path d="M245.2643 104.2118c-.1965-1.16.7905-2.3386 1.9925-2.203 3.578-.0093 7.161-.056 10.739.0187 1.0197-.0655 1.4734.9776 1.913 1.7072 2.4135 4.5136 4.8317 9.0272 7.2592 13.536-.0374-4.5042-.0374-9.0084-.014-13.5126-.1263-.9634.7717-1.7258 1.679-1.7258 2.4884-.0842 4.9814-.042 7.4697-.028.987-.0936 2.072.6547 1.9925 1.7258.028 10.4584.0047 20.9215.0094 31.38.201 1.1552-.898 2.217-2.044 2.0064-3.2694-.014-6.5435.0374-9.813-.028-.7015.103-1.113-.5613-1.4312-1.0477-2.8484-5.0936-5.4303-10.3415-8.4144-15.3602-.1777 4.813.0047 9.6305-.089 14.4434.0703.9775-.6594 2.0907-1.7398 1.983-2.652.0094-5.3087.0375-7.9607-.0233-.9916.0187-1.665-1.0618-1.5295-1.9785-.028-10.2947.0047-20.594-.0187-30.8934z" id="path18"/></g><path id="path20" d="M37.743 103.323c.5425-.449 1.0664-1.0757 1.8615-.9494 3.4472-.028 6.8943-.0328 10.3415 0 .94-.0374 1.679.8934 1.6698 1.7914.117 3.0402-.0468 6.0898.07 9.1347 2.7036-3.1992 5.0048-6.7212 7.5633-10.0327.351-.3882.725-.9402 1.3284-.884 3.3162-.056 6.637-.0328 9.9533-.014 1.4265-.1966 2.4228 1.7632 1.45 2.825-2.783 3.667-5.7438 7.1936-8.5735 10.8278 3.302 6.1787 6.6557 12.334 9.9392 18.5267.7858 1.132.0327 2.8812-1.408 2.8485-3.7698.0748-7.5396.0374-11.3095.0187-1.0198.103-1.698-.7577-2.091-1.581-1.852-3.5593-3.8118-7.0626-5.5986-10.6548-.566.5472-1.3564 1.099-1.2862 1.9878-.0702 2.8204.0795 5.6408-.0374 8.4565.0046.884-.753 1.7867-1.665 1.7774-3.4567.0608-6.9178.0374-10.3743.014-.945.009-1.988-.7858-1.8148-1.8055-.0468-10.7624 0-21.5248-.0187-32.2872z"/><path id="path22" d="M84.5952 104.1884c.234-.828.7344-1.857 1.754-1.81 4.71-.0796 9.4247.0373 14.1347-.0516.6127.5332 1.071 1.216 1.2815 2.0112 3.204 9.8784 6.4172 19.7522 9.6445 29.6212.2433.8934.7905 1.9972.0188 2.7923-.566.8513-1.6885.6362-2.5585.6923-3.1478-.0468-6.2956.0468-9.4388-.042-.711.009-1.3423-.5333-1.548-1.188-.4632-1.4454-.7625-2.9375-1.1788-4.392-3.1572 0-6.3143 0-9.4715-.005-.4163 1.4873-.7203 3.0074-1.1927 4.476-.2152.8513-1.1927 1.1413-1.969 1.1273-2.5118.0235-5.0235.033-7.5352-.005-1.146.0375-2.203-1.2535-1.726-2.3573 3.2508-10.2947 6.539-20.5753 9.785-30.87m5.028 18.3957c1.595.014 3.19.014 4.7848-.005-.753-3.0215-1.5106-6.0477-2.2637-9.0692-1.085 2.9467-1.6417 6.0617-2.521 9.074z"/><path id="path24" d="M113.5288 104.2118c-.1496-1.0243.8186-1.9925 1.8476-1.843 3.6015-.0232 7.2077-.028 10.8138 0 .7577-.084 1.2863.5287 1.6043 1.1367 2.5164 4.607 4.9065 9.2844 7.493 13.8494-.028-4.2236-.0374-8.452-.0094-12.6755-.0794-.9775.407-2.2778 1.553-2.2872 2.694-.0795 5.3976-.056 8.0963-.014.9495-.0235 1.651.94 1.5482 1.8475.0187 10.4396.0234 20.884 0 31.3283.1216 1.1414-.987 1.9973-2.0627 1.871-3.1478.0188-6.2956.0234-9.4434-.005-1.4546.0843-1.9223-1.52-2.521-2.5304-2.61-4.7193-4.9766-9.5837-7.7783-14.186-.1215 4.967-.0045 9.9344-.056 14.9017.1403.9635-.739 1.7867-1.6652 1.7914-2.0486.1075-4.102-.005-6.1553.0468-.9167-.056-1.9925.1496-2.7502-.5005-.6688-.5847-.491-1.5482-.538-2.3293.033-10.1356-.014-20.2666.0235-30.4023z"/><path id="path26" d="M158.211 104.1697c.2477-.753.5985-1.7867 1.576-1.768 4.5464-.1122 9.1067-.0515 13.653-.0374 1.235-.1497 1.712 1.118 2.002 2.0673 3.2647 10.1404 6.6136 20.2526 9.8643 30.393.524 1.146-.2573 2.6146-1.5716 2.5818-2.9794.1216-5.9635-.014-8.943.0515-1.0242-.0516-2.3105.1917-3.0355-.7204-.725-1.534-.9588-3.2413-1.375-4.869-3.176-.0702-6.3565-.0468-9.5324-.0187-.463 1.5995-.6735 3.2927-1.3657 4.8175-.6454.9588-1.9223.7437-2.9092.7858-2.32-.0983-4.6586.1403-6.9645-.1216-1.188-.248-1.52-1.6745-1.0757-2.6708 3.2273-10.159 6.4686-20.3228 9.6773-30.4912m5.084 18.4144c1.567 0 3.1385 0 4.71-.005-.7202-3.0402-1.4686-6.0758-2.2918-9.088-.898 3.003-1.651 6.0525-2.4182 9.0927z"/></g><g id="g3405"><path id="path3808" d="M257.0874 7.1382l-6.4876 17.394-6.4876-17.394h-5.669l9.3203 25h5.6725l9.324-25h-5.6726z"/><g id="g3810"><g clip-path="url(#clipPath3814)" id="g3812" transform="matrix(3.65498 0 0 -3.65498 -229.23 1146.87)"><g id="g3818"><path id="path3820" d="M124.184 307.014l-1.133-.822c.44-.652 1.324-1.338 2.51-1.338 1.333 0 2.376.817 2.376 2.089 0 .831-.484 1.465-1.48 1.921-.137.063-.702.314-.811.36-.524.221-.778.47-.778.768 0 .309.24.607.733.607.345 0 .661-.162.964-.495l1.077.781c-.43.661-1.229 1.071-2.085 1.071-1.133 0-2.129-.731-2.129-1.958 0-.854.485-1.515 1.477-1.939.291-.124.494-.211.723-.309.328-.139.857-.36.857-.828 0-.468-.463-.71-.963-.71-.452 0-.928.286-1.338.802"/></g><g id="g3822"><path id="path3824" d="M137.496 306.241c-.331 0-.609.2-.757.483-.112.216-.116.558-.116.849v2.84h1.582l.528 1.417h-2.11v1.953h-1.448v-6.431c.002-.298.017-.571.13-.929.315-.913 1.169-1.569 2.191-1.569.584 0 1.183.225 1.624.637l-.907 1.037c-.192-.168-.456-.287-.717-.287"/></g></g></g></g></g><g id="g4282"><g id="g3922"><path d="M117.217 163.3493l-20.786 55.765-20.8027-55.765H57.4426l29.8957 80.1412h18.1856l29.8788-80.1412H117.217z" id="path3924" fill="#231f20"/></g><g id="g3926"><g id="g3928" clip-path="url(#clipPath3930)" transform="matrix(16.77646 0 0 -16.77646 -3087.792 5382.775)"><g id="g3934"><path d="M184.846 307.752l-.791-.574c.307-.456.924-.935 1.753-.935.931 0 1.659.571 1.659 1.459 0 .581-.338 1.023-1.033 1.342-.096.044-.491.22-.567.252-.366.154-.543.328-.543.536 0 .216.168.424.512.424.241 0 .461-.113.673-.346l.752.546c-.3.461-.858.748-1.456.748-.791 0-1.487-.51-1.487-1.368 0-.596.339-1.058 1.032-1.354.203-.087.345-.147.505-.216.229-.097.598-.251.598-.578 0-.327-.323-.496-.673-.496-.315 0-.647.2-.934.56" id="path3936" fill="#231f20"/></g><g id="g3938"><path d="M194.143 307.212c-.231 0-.425.14-.528.338-.079.15-.082.389-.082.592v1.984h1.105l.369.99h-1.474v1.364h-1.011v-4.492c.001-.208.012-.399.091-.649.22-.637.816-1.096 1.53-1.096.408 0 .827.157 1.134.445l-.633.724c-.134-.117-.319-.2-.501-.2" id="path3940" fill="#231f20"/></g><g id="g3942"><path d="M198.953 308.652c.234.304.368.662.368 1.024 0 .419-.17.806-.478 1.091-.296.273-.689.424-1.105.424-.438 0-.818-.144-1.1-.416-.271-.261-.44-.628-.488-1.063l-.01-.085h.983l.003.046c.021.329.29.586.612.586.334 0 .628-.283.628-.606 0-.207-.173-.426-.334-.635l-2.025-2.679h3.368V307.3h-1.467l1.045 1.352z" id="path3944" fill="#231f20"/></g><g id="g3946"><path d="M201.954 309.196v-.942h-.966l1.071 2.864h-1.07l-1.411-3.776h2.376v-1.003h.996v2.857h-.996z" id="path3948" fill="#231f20"/></g></g></g></g></g></svg>
