<svg xmlns="http://www.w3.org/2000/svg" width="97.083946mm" height="86.71524mm" viewBox="0 0 343.99823 307.25872" id="svg4464"><defs id="defs4466"><clipPath id="clipPath3576"><path id="path3578" d="M754.345 512.111h45.505v40.645h-45.505v-40.645z"/></clipPath><clipPath id="clipPath3584"><path id="path3586" d="M759.205 552.756h40.645v-40.645h-40.645v40.645z"/></clipPath><clipPath id="clipPath3592"><path id="path3594" d="M759.2048 552.7558h40.645v-40.645h-40.645v40.645z"/></clipPath><radialGradient id="radialGradient3596" spreadMethod="pad" gradientTransform="matrix(20.32895 0 0 -20.32895 779.103 532.518)" gradientUnits="userSpaceOnUse" r="1" cy="0" cx="0" fy="0.00336217" fx="-0.97217602"><stop id="stop3598" offset="0" stop-color="#fff"/><stop id="stop3600" offset="0.916984" stop-color="#fff"/><stop id="stop3602" offset="0.952891" stop-color="#e6e6e6"/><stop id="stop3604" offset="1" stop-color="#9c9a9b"/></radialGradient><clipPath id="clipPath3556"><path id="path3558" d="M754.345 512.111h45.505v40.645h-45.505v-40.645z"/></clipPath></defs><g id="layer1"><g id="g4546" fill="#0a0705"><g id="g3572"><g id="g3574" clip-path="url(#clipPath3576)" transform="matrix(7.55957 0 0 -7.55957 -5702.525 4178.597)"><g id="g3580"><g id="g3606"><g clip-path="url(#clipPath3584)" id="g3608"><g id="g3610"><g id="g3612"><g id="g3614"><g id="g3616"><g clip-path="url(#clipPath3592)" id="g3618"><path d="M759.205 532.434c0-11.224 9.099-20.323 20.323-20.323 11.223 0 20.322 9.099 20.322 20.323 0 11.223-9.099 20.322-20.322 20.322-11.224 0-20.323-9.099-20.323-20.322" id="path3620" fill="url(#radialGradient3596)"/></g></g></g></g></g></g></g></g><g id="g3622"><path d="M754.3453 538.02v6.041c6.238 0 9.053 2.203 9.263 6.741h7.21l-.001-12.782h-16.472z" id="path3624" fill="#f25c19"/></g></g></g><g id="g3552"><g id="g3554" clip-path="url(#clipPath3556)" transform="matrix(7.55957 0 0 -7.55957 -5702.524 4178.598)"><g id="g3560"><path d="M799.85 532.4333c0-11.224-9.099-20.323-20.323-20.323-11.223 0-20.322 9.099-20.322 20.323s9.099 20.323 20.322 20.323c11.224 0 20.323-9.099 20.323-20.323" id="path3562" fill="#d3d2d2"/></g><g id="g3564"><path d="M762.1808 521.842l.001 16.178h-7.837v6.041c6.239 0 9.053 2.203 9.263 6.741h7.211l-.002-36.729c-3.578 1.7-6.581 4.411-8.636 7.769" id="path3566" fill="#f25c19"/></g><g id="g3568"><path d="M774.3165 512.785c.662 7.263 2.654 10.694 10.379 16.197 6.374 4.541 7.932 6.62 7.932 9.391 0 2.79-2.261 5.176-5.05 5.176-2.97 0-5.162-2.288-5.162-6.399 0-.275.015-.579.029-.964h-7.678c-.774 8.647 3.939 14.971 12.677 14.971 7.294-3.086 12.406-10.306 12.406-18.724-3.395-5.962-11.353-8.921-14.69-12.946l10.036.01c-3.727-4.517-9.355-7.386-15.668-7.386-1.801 0-3.548.234-5.211.674" id="path3570" fill="#f25c19"/></g></g></g></g></g></svg>
