
Open SVG

Paste markup
Demo
Contribute
About
Powered by the incredible SVGO


IMAGE
CODE
1.36k - 69.37% saving
<svg xmlns="http://www.w3.org/2000/svg" id="svg2" viewBox="0 0 37.040998 6.5087502" height="1.8369139mm" width="10.453793mm"><g id="layer1" fill="#fff"><g id="g65864"><path d="M7.0337 5.6866h-.6862V.853h3.5187v.68H7.0337v1.43H9.565v.686H7.0337v2.0376z" id="path65866"/></g><g id="g65868"><path d="M10.7784 3.8278h1.8837l-.9374-2.0975-.9462 2.0975zm3.4537 1.8587h-.7436l-.5475-1.23h-2.4414l-.555 1.23h-.715l.0163-.0387L11.432.8453h.5976l2.2025 4.8412z" id="path65870"/></g><g id="g65872"><path d="M23.8347 3.817h1.885l-.9387-2.1114-.9463 2.1113zm3.4538 1.87h-.7438l-.5475-1.2276H23.556l-.555 1.2275h-.715l.0162-.039L24.4885.857h.5975l2.2025 4.83z" id="path65874"/></g><g id="g65876"><path d="M18.8512 5.6866h-.865L16.2225 3.463l-.9088.92v1.3036h-.6875V.853h.6875v2.671L17.885.853h.9037l-2.0862 2.1274 2.1487 2.7062z" id="path65878"/></g><g id="g65880"><path d="M21.378 5.6866h-.6824V1.533H19.123v-.68h3.825v.68h-1.57v4.1536z" id="path65882"/></g><g id="g65884"><path d="M29.302 3.227L27.7543.852h1.8137l.689 1.1538.696-1.1538h1.7814l-1.5488 2.3613 1.6163 2.47h-1.815l-.7564-1.2563-.7637 1.2563h-1.7814L29.302 3.227z" id="path65886"/></g><g id="g65888"><path d="M33.1997.851h1.5975v3.4612h2.2438V5.686h-3.8413V.851z" id="path65890"/></g><g id="g65892"><path d="M0 .8575V5.655l1.6112.8538V0L0 .8575z" id="path65894"/></g><path d="M1.8912.8524h2.5613V5.686H1.8912V.8525z" id="path65896"/></g></svg>
