<svg xmlns="http://www.w3.org/2000/svg" id="svg2" viewBox="0 0 37.040998 6.5087502" height="1.8369139mm" width="10.453793mm"><g id="layer1"><g id="g65864"><path d="M7.034 5.687h-.687V.853h3.52v.68H7.033v1.43h2.53v.686h-2.53v2.037z" id="path65866" fill="#202468"/></g><g id="g65868"><path d="M10.778 3.828h1.884l-.937-2.098-.947 2.098zm3.454 1.86h-.744l-.547-1.23H10.5l-.555 1.23H9.23l.016-.04L11.432.845h.598l2.202 4.842z" id="path65870" fill="#202468"/></g><g id="g65872"><path d="M23.835 3.817h1.885l-.94-2.11-.945 2.11zm3.453 1.87h-.743l-.548-1.228h-2.44L23 5.686h-.714l.016-.04 2.186-4.79h.598l2.202 4.83z" id="path65874" fill="#202468"/></g><g id="g65876"><path d="M18.85 5.687h-.864l-1.764-2.224-.908.92v1.304h-.688V.853h.688v2.67l2.57-2.67h.905L16.7 2.98l2.15 2.707z" id="path65878" fill="#202468"/></g><g id="g65880"><path d="M21.378 5.687h-.682V1.533h-1.573v-.68h3.825v.68h-1.57v4.154z" id="path65882" fill="#202468"/></g><g id="g65884"><path d="M29.302 3.227L27.754.852h1.814l.69 1.154.695-1.154h1.78l-1.547 2.36 1.616 2.47h-1.815l-.756-1.255-.763 1.256h-1.78L29.3 3.227z" id="path65886" fill="#202468"/></g><g id="g65888"><path d="M33.2.85h1.597v3.462h2.244v1.374H33.2V.85z" id="path65890" fill="#202468"/></g><g id="g65892"><path d="M0 .858v4.797l1.61.854V0L0 .858z" id="path65894" fill="#202468"/></g><path d="M1.89.852h2.562v4.834h-2.56V.852z" id="path65896" fill="#202468"/><g id="g65906"><path d="M3.093 4.07h-.528l.528-.786v.785zm.832 0H3.65V1.705c0-.017-.012-.035-.03-.04-.018-.005-.037.002-.047.018l-1.698 2.53v.376h1.233v.32c0 .024.02.043.042.043h.457c.023 0 .042-.02.042-.042v-.32h.275c.023 0 .042-.02.042-.042V4.11c0-.02-.02-.04-.042-.04" id="path65908" fill="#fff"/></g></g></svg>
