<svg id="Lager_1" data-name="Lager 1" xmlns="http://www.w3.org/2000/svg" viewBox="0 0 396.82 395.57"><defs><style>.cls-1{fill:#fff;}</style></defs><title>Resurs 1</title><g id="Lager_2" data-name="Lager 2"><g id="Layer_1" data-name="Layer 1"><path class="cls-1" d="M293.38 23C355 56.71 396.82 122.13 396.82 197.15c0 109.42-89 198.42-198.41 198.42S0 306.53 0 197.11C0 96.49 75.32 13.17 172.54.45l-47.42 65a150.85 150.85 0 0 0-77.49 131.66c0 83.16 67.63 150.82 150.78 150.82S349.2 280.27 349.2 197.11A151 151 0 0 0 265 61.87z"/><path class="cls-1" d="M105.55 136l-2 2.93v.25A112.35 112.35 0 1 0 212.29 86.8l54.79-75A173.37 173.37 0 0 0 204.82 0l-94.31 129.24c-1.69 2.12-3.41 4.46-4.96 6.76zm93.45 7.35a55 55 0 1 1-55 55 55 55 0 0 1 55-55z"/></g></g></svg>
