<svg xmlns="http://www.w3.org/2000/svg" viewBox="0 0 396.82 395.53"><defs><style>.cls-1{fill:#1d1d1b;}.cls-2{fill:#e4032e;}</style></defs><title>Resurs 1</title><g id="Lager_2" data-name="Lager 2"><g id="Layer_1" data-name="Layer 1"><path class="cls-1" d="M293.38 23c61.58 33.71 103.44 99.13 103.44 174.15 0 109.42-89 198.42-198.41 198.42S0 306.53 0 197.11C0 96.49 75.32 13.17 172.54.45l-47.42 65a150.85 150.85 0 0 0-77.49 131.66c0 83.16 67.63 150.82 150.78 150.82S349.2 280.27 349.2 197.11a151 151 0 0 0-84.23-135.24z"/><path class="cls-2" d="M105.55 136l-2 2.93v.25A112.35 112.35 0 1 0 212.29 86.8l54.79-75A173.37 173.37 0 0 0 204.82 0l-94.31 129.24c-1.69 2.12-3.41 4.46-4.96 6.76zm93.49 7.35a55 55 0 1 1-55 55 55.09 55.09 0 0 1 55.01-55z"/></g></g></svg>
