<svg xmlns="http://www.w3.org/2000/svg" viewBox="0 0 396.82 546.07"><defs><style>.cls-1{fill:#1d1d1b;}.cls-2{fill:#e4032e;}</style></defs><title>Resurs 1</title><g id="Lager_2" data-name="Lager 2"><g id="Layer_1" data-name="Layer 1"><path class="cls-1" d="M293.38 23c61.58 33.71 103.44 99.13 103.44 174.15 0 109.42-89 198.42-198.41 198.42S0 306.53 0 197.11C0 96.49 75.32 13.17 172.54.45l-47.42 65a150.84 150.84 0 0 0-77.49 131.66c0 83.16 67.63 150.82 150.78 150.82S349.2 280.27 349.2 197.11a151 151 0 0 0-84.23-135.24z"/><path class="cls-2" d="M105.55 136l-2 2.93v.25A112.35 112.35 0 1 0 212.29 86.8l54.79-75A173.37 173.37 0 0 0 204.82 0l-94.31 129.24c-1.69 2.12-3.41 4.46-4.96 6.76zm93.49 7.35a55 55 0 1 1-55 55 55.09 55.09 0 0 1 55.01-55z"/><path class="cls-1" d="M185.57 544.15h-23.1v-52.68c0-5.25-1.75-17.15-16.8-17.15-10.33 0-17.5 7-17.5 17.15v52.68H104.9V413.94h23.28v44.8a33.79 33.79 0 0 1 20.65-7c22.05 0 36.75 15.92 36.75 39.73zM290.03 544.15h-22.05v-9.62a37.75 37.75 0 0 1-27.65 11.55c-23.45 0-42.88-20.3-42.88-46.9 0-26.78 19.43-47.08 42.88-47.08a37.88 37.88 0 0 1 26.6 10.5v-48.66h23.1zm-46.2-70.7c-12.78 0-23.1 11.2-23.1 25.9 0 14.35 10.33 25.37 23.1 25.37s23.1-11.37 23.1-25.37c0-14.35-10.33-25.9-23.1-25.9z"/></g></g></svg>
