<svg xmlns="http://www.w3.org/2000/svg" height="598.09" width="600" viewBox="0 0 158.75 158.24445" id="svg3336"><g stroke-width="2.5279" fill="#fff" id="g3338"><path d="M118.303 9.6064c.506 2.528.759 5.0557.759 7.5836 0 7.8364-2.275 15.167-6.067 21.234 11.628 9.606 18.959 24.268 18.959 40.446 0 29.07-23.509 52.582-52.58 52.582-29.074 0-52.584-23.512-52.584-52.582 0-16.178 7.34-30.84 18.96-40.446-3.79-6.067-6.06-13.398-6.06-21.234 0-2.528.25-5.0557.76-7.5836C16.43 23.2564 0 49.0414 0 78.8704c0 43.732 35.64 79.372 79.374 79.372 30.082 0 56.119-16.68 69.517-41.2h-.506c-6.067 0-11.123-5.057-11.123-11.124s5.056-11.123 11.123-11.123c3.033 0 6.067 1.264 8.089 3.287 1.517-6.067 2.275-12.64 2.275-19.212 0-29.829-16.431-55.613-40.446-69.264" id="path3340"/><path d="M79.374 34.379c5.309 0 10.112-2.527 13.398-6.319 2.275-3.0336 3.792-6.8254 3.792-10.87C96.564 7.584 88.98 0 79.374 0 69.77 0 62.18 7.584 62.18 17.19c0 4.0446 1.52 7.8364 3.8 10.87 3.28 3.792 8.09 6.319 13.394 6.319m0 74.067c16.431 0 29.576-13.145 29.576-29.576 0-10.617-5.561-19.97-14.156-25.026-4.55-2.781-9.858-4.297-15.42-4.297-5.564 0-10.874 1.516-15.424 4.297C55.61 59.153 49.8 68.253 49.8 78.87c0 16.178 13.14 29.576 29.574 29.576" id="path3342"/></g></svg>
